<svg xmlns="http://www.w3.org/2000/svg" version="1.1" xmlns:xlink="http://www.w3.org/1999/xlink" xmlns:svgjs="http://svgjs.dev/svgjs" width="1500" height="1500" viewBox="0 0 1500 1500"><rect width="1500" height="1500" fill="#000000"></rect><g transform="matrix(0.6666666666666666,0,0,0.6666666666666666,249.50000000000006,249.50000000000006)"><svg viewBox="0 0 280 280" data-background-color="#ffffff" preserveAspectRatio="xMidYMid meet" height="1500" width="1500" xmlns="http://www.w3.org/2000/svg" xmlns:xlink="http://www.w3.org/1999/xlink"><g id="tight-bounds" transform="matrix(1,0,0,1,0.13999999999998636,0.13999999999998636)"><svg viewBox="0 0 279.72 279.72" height="279.72" width="279.72"><g><svg viewBox="0 0 279.72 279.72" height="279.72" width="279.72"><g><svg viewBox="0 0 279.72 279.72" height="279.72" width="279.72"><g id="textblocktransform"><svg viewBox="0 0 279.72 279.72" height="279.72" width="279.72" id="textblock"><g><svg viewBox="0 0 279.72 279.72" height="279.72" width="279.72"><g transform="matrix(1,0,0,1,57.446704652707865,57.446704652707865)"><svg viewBox="0 0 164.8265906945843 164.8265906945843" height="164.8265906945843" width="164.8265906945843"><g id="icon-0"><circle r="82" cx="82.41329534729215" cy="82.41329534729215" fill="#ffffff" data-fill-palette-color="accent"></circle><svg xmlns="http://www.w3.org/2000/svg" xmlns:xlink="http://www.w3.org/1999/xlink" version="1.1" x="24.72398860418764" y="24.723988604187646" viewBox="16 8 68 84" style="enable-background:new 0 0 100 100;" xml:space="preserve" height="115.378613486209" width="115.378613486209" class="icon-jxe-0" data-fill-palette-color="quaternary" id="jxe-0"><path d="M72 8H28C21.4 8 16 13.4 16 20V80C16 86.6 21.4 92 28 92H72C78.6 92 84 86.6 84 80V20C84 13.4 78.6 8 72 8M28 12H72C75.7 12 78.9 14.6 79.7 18H20.3C21.1 14.6 24.3 12 28 12M80 80C80 84.4 76.4 88 72 88H28C23.6 88 20 84.4 20 80V22H80zM26 80V30C26 28.9 26.9 28 28 28S30 28.9 30 30V80C30 81.1 29.1 82 28 82S26 81.1 26 80M38 82H72C73.1 82 74 81.1 74 80V30C74 28.9 73.1 28 72 28H38C36.9 28 36 28.9 36 30V80C36 81.1 36.9 82 38 82M40 62H70V68H40zM40 52H70V58H40zM70 48H40V42H70zM70 78H40V72H70zM40 32H70V38H40z" fill="#000000" data-fill-palette-color="quaternary"></path></svg></g></svg></g><g id="text-0"><path d="M17.614 105.695l-0.928-0.441c0.079-0.687 0.031-1.185-0.145-1.494-0.171-0.3-0.553-0.544-1.145-0.734v0l-8.878-2.865c-0.451-0.144-0.77-0.191-0.957-0.14-0.189 0.058-0.334 0.242-0.433 0.552v0l-0.179 0.733-0.104 0.011-0.884-0.439c0.058-0.182 0.11-0.321 0.156-0.417v0c0.298-0.839 0.518-1.478 0.658-1.916v0c0.19-0.592 0.367-1.367 0.533-2.323v0l0.93 0.398c-0.068 0.446-0.08 0.772-0.036 0.98 0.038 0.205 0.165 0.376 0.382 0.511 0.214 0.143 0.583 0.313 1.106 0.51v0l3.384 1.217 1.155-3.537c0.285-0.888 0.548-1.954 0.79-3.198v0l-3.84-1.252c-0.451-0.144-0.77-0.191-0.958-0.139-0.189 0.058-0.334 0.242-0.432 0.551v0c-0.065 0.202-0.124 0.446-0.179 0.733v0l-0.107 0.022-0.881-0.449c0.063-0.15 0.167-0.429 0.312-0.835 0.145-0.406 0.282-0.811 0.412-1.216v0c0.218-0.68 0.424-1.545 0.619-2.595v0l0.934 0.388c-0.099 0.54-0.097 0.93 0.003 1.17 0.103 0.233 0.358 0.423 0.765 0.567v0c1.569 0.592 3.256 1.21 5.061 1.855 1.807 0.638 3.175 1.106 4.103 1.403v0c0.525 0.168 0.895 0.216 1.112 0.144 0.214-0.065 0.38-0.283 0.498-0.653v0c0.054-0.168 0.135-0.491 0.244-0.968v0l0.093-0.015 0.908 0.503c-0.063 0.195-0.119 0.348-0.169 0.458v0c-0.324 0.92-0.565 1.626-0.722 2.117v0l-0.739 2.446-0.888-0.496c0.135-0.469 0.181-0.833 0.138-1.091-0.045-0.252-0.209-0.471-0.49-0.658-0.284-0.18-0.749-0.373-1.395-0.58v0l-3.191-1.022-1.048 3.204c-0.099 0.354-0.233 0.857-0.405 1.507-0.169 0.643-0.332 1.337-0.488 2.081v0l3.76 1.294c0.572 0.183 0.976 0.242 1.213 0.176 0.229-0.068 0.402-0.283 0.519-0.646v0c0.054-0.168 0.135-0.491 0.243-0.969v0l0.094-0.014 0.911 0.492c-0.054 0.124-0.145 0.362-0.274 0.714-0.126 0.346-0.247 0.7-0.362 1.064v0c-0.209 0.653-0.405 1.358-0.589 2.115-0.174 0.753-0.238 1.148-0.19 1.186z" fill="#ffffff" data-fill-palette-color="primary"></path><path d="M25.331 84.688c-0.555 1.192-1.273 1.964-2.155 2.318-0.879 0.347-1.876 0.261-2.99-0.258v0l-5.132-2.39c-0.333-0.155-0.577-0.218-0.731-0.188-0.151 0.023-0.283 0.157-0.397 0.4v0l-0.231 0.547-0.08 0.021-0.73-0.492c0.069-0.147 0.2-0.413 0.395-0.798 0.192-0.378 0.382-0.769 0.569-1.173v0c0.137-0.295 0.281-0.645 0.431-1.051 0.15-0.406 0.247-0.672 0.291-0.8v0l0.767 0.462c-0.131 0.415-0.165 0.714-0.103 0.9 0.059 0.191 0.229 0.371 0.508 0.54v0l4.55 2.259c0.955 0.445 1.791 0.565 2.51 0.362 0.725-0.2 1.281-0.717 1.669-1.55v0c0.394-0.846 0.481-1.585 0.26-2.218-0.22-0.633-0.734-1.137-1.541-1.512v0c-0.827-0.385-1.773-0.814-2.838-1.287-1.06-0.47-1.809-0.795-2.247-0.976v0c-0.377-0.144-0.629-0.207-0.755-0.188-0.135 0.023-0.255 0.146-0.36 0.371v0l-0.298 0.691-0.071 0.002-0.73-0.492c0.063-0.135 0.187-0.385 0.373-0.75 0.183-0.359 0.362-0.728 0.538-1.106v0c0.143-0.308 0.281-0.645 0.413-1.012 0.135-0.374 0.222-0.618 0.259-0.733v0l0.776 0.443c-0.154 0.498-0.207 0.839-0.161 1.024 0.04 0.182 0.21 0.344 0.512 0.484v0l5.151 2.398c1.108 0.516 1.803 1.276 2.084 2.281 0.275 1.001 0.106 2.158-0.506 3.471z" fill="#ffffff" data-fill-palette-color="primary"></path><path d="M31.747 72.671l-0.138 0.003-0.643-0.473c0.284-0.555 0.442-0.947 0.472-1.176 0.031-0.229-0.042-0.396-0.218-0.502v0c-0.2-0.12-0.44-0.207-0.721-0.261v0l-1.741-0.416c-0.165 0.247-0.486 0.767-0.964 1.561v0c-0.222 0.369-0.514 0.936-0.874 1.701v0l1.086 1.383c0.236 0.266 0.387 0.419 0.454 0.458v0c0.2 0.12 0.387 0.138 0.561 0.054 0.175-0.085 0.358-0.287 0.552-0.609v0l0.492-0.818 0.105-0.01 0.647 0.549c-0.089 0.12-0.28 0.397-0.574 0.831-0.294 0.434-0.57 0.865-0.828 1.295v0c-0.244 0.406-0.458 0.776-0.643 1.11-0.181 0.328-0.306 0.55-0.376 0.665v0l-0.71-0.588c0.131-0.3 0.167-0.58 0.108-0.838-0.059-0.258-0.23-0.584-0.513-0.976v0l-5.752-7.53 0.559-1.506 0.104-0.111c0.048 0.029 1.223 0.339 3.523 0.931 2.302 0.601 4.229 1.059 5.78 1.373v0c0.446 0.095 0.802 0.086 1.067-0.026 0.262-0.106 0.54-0.364 0.835-0.772v0l0.104 0.013 0.627 0.5c-0.076 0.127-0.225 0.36-0.444 0.698-0.216 0.332-0.428 0.67-0.636 1.016v0c-0.31 0.515-0.588 1.019-0.836 1.513-0.238 0.492-0.393 0.811-0.465 0.958zM26.21 72.273l0.775-1.291c0.27-0.448 0.521-0.928 0.755-1.439v0l-4.383-1.064-0.082 0.136z" fill="#ffffff" data-fill-palette-color="primary"></path><path d="M39.404 61.828c-4.129-1.254-7.167-2.153-9.114-2.695v0l-0.071 0.093c0.53 0.472 1.522 1.356 2.979 2.652 1.45 1.292 2.252 1.996 2.404 2.112v0c0.152 0.115 0.29 0.162 0.413 0.139 0.113-0.021 0.232-0.113 0.355-0.276v0l0.429-0.567 0.091 0.003 0.606 0.658c-0.081 0.107-0.243 0.304-0.486 0.589-0.247 0.292-0.482 0.584-0.704 0.877v0c-0.179 0.237-0.357 0.501-0.533 0.793-0.176 0.292-0.288 0.486-0.335 0.584v0l-0.67-0.626c0.191-0.334 0.262-0.622 0.214-0.862-0.048-0.24-0.239-0.522-0.572-0.845v0c-0.728-0.701-1.759-1.681-3.093-2.939-1.325-1.259-2.077-1.957-2.258-2.093v0c-0.237-0.179-0.479-0.216-0.727-0.112-0.249 0.095-0.556 0.36-0.919 0.794v0l-0.132-0.02-0.487-0.568c0.109-0.121 0.296-0.339 0.56-0.653 0.269-0.32 0.518-0.632 0.748-0.936v0c0.196-0.259 0.372-0.503 0.527-0.731 0.155-0.228 0.253-0.381 0.293-0.457v0c1.368 0.476 2.659 0.908 3.872 1.295 1.22 0.391 2.198 0.697 2.935 0.917 0.736 0.211 1.197 0.339 1.385 0.384v0l0.064-0.085c-0.229-0.377-0.779-1.254-1.651-2.632-0.876-1.372-1.875-2.899-2.996-4.58v0c0.044-0.082 0.112-0.177 0.203-0.285 0.091-0.108 0.177-0.216 0.258-0.323v0c0.109-0.121 0.258-0.306 0.445-0.554v0c0.141-0.186 0.336-0.468 0.587-0.846 0.25-0.378 0.415-0.63 0.493-0.757v0l0.076 0.005 0.553 0.551c-0.265 0.455-0.403 0.808-0.413 1.057-0.011 0.249 0.099 0.461 0.33 0.635v0c0.237 0.179 1.016 0.707 2.338 1.583 1.326 0.871 2.464 1.598 3.413 2.184v0c0.578 0.349 0.985 0.537 1.221 0.565 0.236 0.028 0.437-0.068 0.604-0.288v0l0.296-0.427 0.076 0.004 0.615 0.664c-0.072 0.096-0.217 0.275-0.433 0.537-0.216 0.262-0.439 0.545-0.669 0.85v0c-0.235 0.31-0.482 0.672-0.743 1.086-0.255 0.419-0.391 0.639-0.408 0.662v0l-0.675-0.618c0.195-0.34 0.291-0.613 0.287-0.819-0.009-0.211-0.121-0.397-0.335-0.559v0c-0.214-0.162-1.104-0.738-2.668-1.726-1.571-0.993-2.64-1.665-3.208-2.016v0l-0.064 0.085c1.252 2.046 2.913 4.695 4.983 7.945v0z" fill="#ffffff" data-fill-palette-color="primary"></path><path d="M47.36 51.769c-0.263 0.276-0.54 0.603-0.831 0.98-0.286 0.382-0.469 0.636-0.551 0.763v0l-0.58-0.713c0.298-0.467 0.442-0.838 0.43-1.113-0.012-0.275-0.189-0.575-0.532-0.901v0l-5.123-4.92c-0.256-0.244-0.462-0.376-0.617-0.398-0.155-0.021-0.319 0.058-0.489 0.237v0l-0.416 0.468-0.106-0.012-0.526-0.677c0.112-0.118 0.322-0.328 0.629-0.631 0.307-0.303 0.605-0.605 0.893-0.907v0c0.292-0.307 0.592-0.637 0.897-0.989 0.306-0.352 0.515-0.598 0.627-0.735v0c0.809-0.85 1.599-1.347 2.37-1.491 0.771-0.144 1.467 0.079 2.087 0.668v0c0.43 0.409 0.685 0.915 0.764 1.519 0.085 0.598-0.003 1.202-0.262 1.813v0c0.678-0.477 1.356-0.743 2.035-0.8 0.683-0.062 1.266 0.136 1.746 0.594v0c0.451 0.429 0.729 0.967 0.835 1.615 0.106 0.637 0.035 1.306-0.213 2.007-0.243 0.696-0.639 1.333-1.19 1.911v0c-0.161 0.169-0.427 0.403-0.8 0.703v0c-0.494 0.437-0.853 0.773-1.077 1.009zM43.57 46.8c0.132-0.118 0.347-0.314 0.646-0.585 0.303-0.277 0.56-0.511 0.77-0.702v0c0.02 0.019 0.077-0.127 0.169-0.439 0.097-0.317 0.116-0.67 0.056-1.059-0.064-0.383-0.284-0.753-0.657-1.108v0c-0.507-0.482-1.049-0.656-1.625-0.522-0.577 0.134-1.221 0.575-1.932 1.322v0c-0.083 0.087-0.119 0.16-0.107 0.22 0.012 0.07 0.066 0.161 0.164 0.274v0c0.627 0.694 1.466 1.561 2.516 2.599zM44.34 47.606l2.137 2.122c0.302 0.287 0.617 0.382 0.944 0.284 0.328-0.098 0.74-0.408 1.237-0.93v0c0.482-0.507 0.73-1.023 0.742-1.548 0.017-0.53-0.2-1.01-0.651-1.439v0c-0.42-0.4-0.897-0.585-1.431-0.557-0.534 0.018-1.108 0.257-1.722 0.718v0z" fill="#ffffff" data-fill-palette-color="primary"></path><path d="M58.418 41.591c-0.765 0.65-1.587 1.057-2.468 1.221-0.881 0.164-1.743 0.072-2.587-0.277-0.85-0.345-1.62-0.923-2.311-1.737v0c-0.746-0.878-1.22-1.839-1.421-2.882-0.201-1.044-0.124-2.061 0.232-3.05 0.351-0.994 0.955-1.855 1.811-2.583v0c0.781-0.664 1.614-1.08 2.501-1.249 0.886-0.169 1.752-0.084 2.596 0.255 0.85 0.335 1.621 0.909 2.313 1.722v0c0.746 0.878 1.22 1.839 1.421 2.883 0.196 1.049 0.113 2.075-0.25 3.078-0.352 1.004-0.964 1.877-1.837 2.619zM58.137 40.425c0.819-0.696 1.232-1.557 1.24-2.585 0.007-1.017-0.408-2.019-1.246-3.004v0c-0.632-0.743-1.309-1.294-2.032-1.653-0.718-0.354-1.432-0.495-2.139-0.422-0.703 0.078-1.346 0.365-1.928 0.859v0c-0.802 0.682-1.199 1.525-1.19 2.529 0.004 0.998 0.425 1.99 1.263 2.975v0c0.632 0.743 1.306 1.297 2.024 1.661 0.713 0.359 1.418 0.511 2.114 0.457 0.697-0.064 1.328-0.336 1.894-0.817z" fill="#ffffff" data-fill-palette-color="primary"></path><path d="M75.61 29.445c-1.14 0.696-2.284 1.067-3.431 1.113-1.151 0.04-2.228-0.238-3.23-0.835-0.992-0.595-1.851-1.486-2.577-2.674v0c-0.77-1.261-1.182-2.574-1.238-3.94-0.052-1.36 0.249-2.636 0.904-3.831 0.651-1.184 1.608-2.161 2.868-2.931v0c0.471-0.287 0.972-0.544 1.505-0.77 0.523-0.228 0.976-0.409 1.358-0.543 0.372-0.136 0.611-0.22 0.716-0.251v0l0.144 0.074c0.024 0.093 0.097 0.301 0.22 0.624 0.116 0.326 0.283 0.742 0.5 1.247 0.215 0.515 0.463 1.042 0.743 1.583v0l-0.87 0.63c-0.025-0.068-0.085-0.193-0.179-0.375-0.085-0.18-0.194-0.379-0.326-0.595v0c-0.714-1.17-2.001-1.188-3.859-0.054v0c-0.832 0.508-1.442 1.158-1.828 1.948-0.387 0.791-0.524 1.657-0.413 2.6 0.109 0.952 0.468 1.925 1.075 2.921v0c0.67 1.098 1.44 1.953 2.311 2.564 0.874 0.618 1.776 0.957 2.707 1.017 0.937 0.057 1.837-0.178 2.7-0.704v0c0.857-0.523 1.4-1.186 1.631-1.989 0.227-0.809 0.149-1.797-0.232-2.964v0l0.855-0.634c0.082 0.215 0.256 0.684 0.523 1.407 0.271 0.729 0.557 1.395 0.859 1.997v0l-0.018 0.235c0.007 0.012-0.141 0.202-0.446 0.571-0.305 0.368-0.709 0.785-1.213 1.249-0.503 0.464-1.089 0.901-1.759 1.31z" fill="#ffffff" data-fill-palette-color="primary"></path><path d="M82.933 25.254l-0.277-0.876c0.45-0.325 0.719-0.617 0.81-0.877 0.09-0.26 0.033-0.611-0.172-1.053v0l-2.933-6.422c-0.154-0.334-0.3-0.539-0.437-0.616-0.137-0.077-0.324-0.061-0.561 0.049v0l-0.539 0.273-0.094-0.051-0.24-0.823c0.135-0.062 0.391-0.173 0.769-0.332 0.378-0.159 0.753-0.325 1.125-0.497v0c0.308-0.142 0.668-0.332 1.08-0.569 0.412-0.237 0.682-0.393 0.811-0.468v0l0.306 0.863c-0.297 0.2-0.497 0.366-0.599 0.498-0.099 0.139-0.139 0.298-0.119 0.476 0.026 0.175 0.114 0.457 0.264 0.848v0l1.019 2.483 2.636-1.195c0.712-0.329 1.46-0.733 2.243-1.212v0l-1.217-2.708c-0.154-0.334-0.3-0.539-0.436-0.615-0.137-0.077-0.324-0.061-0.561 0.049v0l-0.559 0.281-0.074-0.059-0.241-0.823c0.128-0.044 0.37-0.144 0.726-0.3 0.349-0.154 0.694-0.309 1.034-0.467v0c0.321-0.148 0.703-0.348 1.147-0.6 0.444-0.252 0.737-0.418 0.879-0.499v0l0.325 0.854c-0.393 0.244-0.631 0.455-0.712 0.633-0.084 0.171-0.06 0.417 0.072 0.737v0c0.438 1.082 0.934 2.29 1.487 3.622 0.56 1.33 1.005 2.35 1.334 3.063v0c0.199 0.43 0.379 0.693 0.54 0.789 0.155 0.1 0.374 0.084 0.656-0.046v0c0.16-0.074 0.305-0.149 0.434-0.224 0.129-0.075 0.216-0.123 0.261-0.144v0l0.093 0.051 0.21 0.884c-0.148 0.068-0.43 0.191-0.846 0.367-0.417 0.177-0.846 0.368-1.289 0.573v0l-2.002 0.949-0.21-0.884c0.346-0.16 0.584-0.32 0.712-0.481 0.125-0.167 0.173-0.376 0.142-0.627-0.04-0.254-0.162-0.603-0.366-1.045v0l-1.045-2.261-2.319 1.048c-0.218 0.101-0.643 0.328-1.273 0.682-0.64 0.35-1.073 0.585-1.298 0.705v0l1.152 2.644c0.199 0.43 0.38 0.696 0.545 0.799 0.158 0.106 0.378 0.094 0.661-0.037v0c0.16-0.074 0.305-0.149 0.433-0.223 0.129-0.075 0.213-0.129 0.252-0.163v0l0.074 0.059 0.229 0.875c-0.109 0.05-0.317 0.139-0.624 0.265-0.307 0.127-0.628 0.267-0.962 0.421v0c-0.5 0.231-1.037 0.503-1.609 0.814-0.569 0.318-0.852 0.499-0.847 0.543z" fill="#ffffff" data-fill-palette-color="primary"></path><path d="M101.369 17.675l-0.107-0.088-0.178-0.778c0.577-0.235 0.952-0.43 1.125-0.583 0.173-0.154 0.227-0.328 0.162-0.523v0c-0.073-0.221-0.199-0.444-0.377-0.668v0l-1.048-1.452c-0.286 0.08-0.869 0.264-1.748 0.555v0c-0.409 0.135-1 0.375-1.773 0.719v0l-0.079 1.756c0.006 0.355 0.021 0.57 0.045 0.644v0c0.073 0.221 0.203 0.357 0.391 0.407 0.188 0.05 0.459 0.016 0.815-0.102v0l0.906-0.299 0.087 0.061 0.132 0.838c-0.145 0.033-0.471 0.118-0.977 0.256-0.506 0.137-0.997 0.284-1.473 0.441v0c-0.45 0.148-0.854 0.289-1.211 0.422-0.351 0.131-0.591 0.217-0.718 0.259v0l-0.155-0.909c0.295-0.142 0.505-0.33 0.628-0.564 0.124-0.234 0.206-0.593 0.248-1.076v0l0.552-9.459 1.407-0.777 0.151-0.016c0.018 0.054 0.705 1.055 2.063 3.004 1.353 1.958 2.515 3.561 3.485 4.811v0c0.276 0.363 0.551 0.588 0.826 0.676 0.268 0.09 0.647 0.077 1.137-0.04v0l0.07 0.078 0.148 0.788c-0.141 0.047-0.405 0.126-0.791 0.239-0.38 0.111-0.762 0.229-1.145 0.355v0c-0.57 0.188-1.111 0.389-1.621 0.602-0.501 0.217-0.827 0.358-0.977 0.423zM97.432 13.76l1.43-0.471c0.497-0.164 1-0.363 1.51-0.599v0l-2.627-3.666-0.151 0.05z" fill="#ffffff" data-fill-palette-color="primary"></path><path d="M114.245 14.453c-2.311-3.645-4.027-6.308-5.148-7.989v0l-0.114 0.024c0.094 0.703 0.269 2.021 0.526 3.954 0.256 1.926 0.404 2.982 0.444 3.168v0c0.04 0.187 0.114 0.312 0.222 0.376 0.099 0.058 0.249 0.066 0.45 0.022v0l0.694-0.15 0.067 0.062 0.03 0.893c-0.131 0.028-0.382 0.072-0.753 0.13-0.378 0.06-0.746 0.128-1.105 0.206v0c-0.29 0.063-0.597 0.147-0.921 0.252-0.324 0.106-0.536 0.181-0.635 0.224v0l-0.099-0.911c0.363-0.129 0.604-0.3 0.724-0.514 0.12-0.214 0.16-0.551 0.118-1.013v0c-0.094-1.006-0.236-2.422-0.427-4.245-0.182-1.819-0.297-2.839-0.344-3.06v0c-0.063-0.29-0.222-0.476-0.478-0.559-0.251-0.091-0.656-0.09-1.215 0.002v0l-0.087-0.101 0.002-0.749c0.162-0.02 0.445-0.063 0.851-0.129 0.412-0.067 0.805-0.141 1.177-0.221v0c0.318-0.068 0.61-0.139 0.877-0.21 0.266-0.072 0.44-0.124 0.519-0.156v0c0.726 1.253 1.422 2.423 2.09 3.508 0.669 1.092 1.211 1.962 1.625 2.611 0.42 0.64 0.686 1.038 0.8 1.194v0l0.103-0.022c0.073-0.435 0.228-1.459 0.466-3.072 0.231-1.611 0.471-3.42 0.719-5.425v0c0.087-0.033 0.2-0.061 0.339-0.085 0.14-0.023 0.275-0.048 0.407-0.076v0c0.162-0.02 0.395-0.063 0.699-0.129v0c0.228-0.049 0.56-0.135 0.996-0.258 0.436-0.123 0.725-0.207 0.867-0.252v0l0.055 0.053 0.06 0.779c-0.498 0.172-0.832 0.349-1.003 0.531-0.171 0.181-0.225 0.414-0.164 0.696v0c0.063 0.29 0.309 1.199 0.739 2.726 0.437 1.525 0.824 2.819 1.161 3.882v0c0.21 0.641 0.396 1.05 0.557 1.224 0.161 0.175 0.376 0.234 0.645 0.176v0l0.503-0.13 0.055 0.053 0.032 0.904c-0.117 0.025-0.343 0.067-0.678 0.124-0.335 0.058-0.688 0.127-1.061 0.207v0c-0.38 0.082-0.804 0.195-1.272 0.339-0.466 0.151-0.713 0.23-0.741 0.236v0l-0.109-0.909c0.37-0.13 0.62-0.275 0.753-0.433 0.131-0.166 0.168-0.38 0.111-0.642v0c-0.057-0.263-0.355-1.279-0.896-3.05-0.542-1.777-0.914-2.984-1.116-3.62v0l-0.104 0.022c-0.386 2.368-0.856 5.458-1.407 9.272v0z" fill="#ffffff" data-fill-palette-color="primary"></path><path d="M126.838 12.021c-0.38 0.038-0.803 0.105-1.269 0.201-0.466 0.103-0.771 0.176-0.916 0.219v0l0.026-0.919c0.531-0.159 0.882-0.347 1.051-0.563 0.17-0.216 0.232-0.559 0.186-1.03v0l-0.673-7.071c-0.035-0.352-0.105-0.586-0.208-0.704-0.104-0.117-0.279-0.164-0.525-0.139v0l-0.621 0.083-0.071-0.078 0.042-0.857c0.162-0.016 0.458-0.038 0.888-0.067 0.43-0.029 0.853-0.064 1.268-0.105v0c0.422-0.042 0.864-0.097 1.327-0.164 0.462-0.067 0.78-0.117 0.954-0.148v0c1.167-0.116 2.09 0.023 2.769 0.416 0.678 0.394 1.06 1.017 1.145 1.868v0c0.059 0.591-0.078 1.141-0.411 1.65-0.326 0.508-0.787 0.909-1.383 1.203v0c0.825 0.081 1.513 0.322 2.065 0.721 0.558 0.399 0.87 0.929 0.936 1.59v0c0.062 0.619-0.079 1.208-0.421 1.768-0.336 0.552-0.826 1.013-1.471 1.382-0.638 0.369-1.354 0.593-2.149 0.672v0c-0.232 0.023-0.587 0.026-1.065 0.011v0c-0.66 0.009-1.151 0.029-1.474 0.061zM127.207 5.784c0.177-0.003 0.468-0.011 0.872-0.023 0.411-0.012 0.758-0.022 1.041-0.029v0c0.003 0.028 0.141-0.046 0.415-0.223 0.281-0.177 0.525-0.432 0.733-0.765 0.201-0.333 0.276-0.756 0.225-1.269v0c-0.069-0.696-0.366-1.182-0.89-1.456-0.525-0.274-1.3-0.361-2.327-0.259v0c-0.12 0.012-0.194 0.044-0.225 0.097-0.037 0.06-0.055 0.165-0.054 0.315v0c0.022 0.935 0.092 2.139 0.21 3.612zM127.265 6.897l0.235 3.002c0.041 0.415 0.218 0.692 0.53 0.831 0.312 0.139 0.827 0.173 1.545 0.102v0c0.696-0.069 1.22-0.299 1.572-0.689 0.359-0.391 0.507-0.896 0.445-1.514v0c-0.057-0.577-0.298-1.029-0.721-1.356-0.417-0.335-1.008-0.528-1.773-0.58v0z" fill="#ffffff" data-fill-palette-color="primary"></path><path d="M137.098 11.461l0.114-0.933c0.544-0.065 0.911-0.2 1.102-0.406 0.19-0.205 0.285-0.559 0.283-1.061v0l0.013-7.039c-0.001-0.368-0.048-0.615-0.139-0.742-0.092-0.127-0.269-0.19-0.531-0.189v0l-0.604 0.023-0.043-0.085 0.136-0.849c0.177 0 0.523 0.006 1.039 0.019 0.516 0.013 1.078 0.018 1.686 0.017v0c2.474-0.006 4.3-0.078 5.48-0.216v0l0.074 0.116c-0.035 0.163-0.101 0.534-0.198 1.114-0.105 0.573-0.177 1.195-0.218 1.867v0l-1.07 0.087c0-0.057 0.007-0.155 0.02-0.297 0.014-0.141 0.02-0.286 0.02-0.434v0c-0.001-0.389-0.055-0.661-0.161-0.816-0.113-0.155-0.343-0.257-0.69-0.306-0.346-0.049-0.951-0.072-1.813-0.07v0c-0.396 0.001-0.668 0.012-0.816 0.034-0.148 0.022-0.247 0.075-0.297 0.16-0.042 0.078-0.07 0.226-0.083 0.446v0l-0.119 3.159 1.813 0.017c0.269-0.001 0.661-0.026 1.176-0.078 0.516-0.058 0.858-0.094 1.028-0.108v0l0.085 0.116-0.262 1.146c-0.163 0-0.484-0.006-0.964-0.019-0.481-0.013-0.99-0.019-1.527-0.017v0c-0.41 0.001-0.876 0.041-1.399 0.12v0c-0.039 1.124-0.058 2.138-0.056 3.043v0c0.001 0.339 0.026 0.576 0.076 0.71 0.057 0.127 0.177 0.215 0.361 0.264 0.184 0.042 0.491 0.062 0.923 0.061v0c0.961-0.003 1.65-0.05 2.067-0.143 0.41-0.086 0.699-0.267 0.868-0.543 0.169-0.276 0.305-0.746 0.409-1.411v0l0.976-0.087 0.085 0.106c-0.042 0.163-0.119 0.545-0.231 1.145-0.104 0.601-0.188 1.227-0.249 1.877v0l-0.127 0.107c-0.403-0.013-1.233-0.032-2.492-0.058-1.258-0.025-2.279-0.036-3.063-0.034v0c-0.601 0.002-1.163 0.028-1.686 0.079-0.516 0.058-0.848 0.094-0.996 0.108z" fill="#ffffff" data-fill-palette-color="primary"></path><path d="M157.647 12.618c-0.324-0.032-0.64-0.209-0.949-0.53-0.309-0.322-0.58-0.746-0.812-1.274v0l-1.536-3.422-1.435-0.142-0.276 2.359c-0.042 0.422-0.043 0.727-0.005 0.916 0.045 0.196 0.148 0.331 0.312 0.404 0.163 0.073 0.452 0.137 0.865 0.192v0l0.035 0.078-0.262 0.816c-0.174-0.031-0.493-0.074-0.957-0.127-0.464-0.053-0.931-0.103-1.402-0.149v0c-0.457-0.045-0.855-0.077-1.194-0.097-0.339-0.019-0.569-0.028-0.69-0.025v0l0.247-0.881c0.549-0.024 0.92-0.115 1.113-0.274 0.193-0.158 0.314-0.48 0.362-0.966v0l0.728-7.044c0.035-0.352 0.013-0.595-0.067-0.731-0.079-0.136-0.241-0.216-0.487-0.24v0l-0.625-0.04-0.055-0.091 0.21-0.831c0.148 0.015 0.428 0.049 0.842 0.104 0.414 0.055 0.824 0.103 1.233 0.143v0c0.429 0.042 0.887 0.077 1.374 0.104 0.487 0.027 0.819 0.049 0.995 0.066v0c1.196 0.118 2.107 0.457 2.733 1.016 0.634 0.56 0.907 1.276 0.822 2.148v0c-0.067 0.675-0.357 1.279-0.872 1.81-0.513 0.525-1.204 0.932-2.07 1.223v0l1.599 3.013c0.307 0.563 0.611 0.973 0.911 1.23 0.302 0.25 0.682 0.398 1.139 0.443v0l0.074 0.113-0.173 0.676zM154.847 6.451c0.292-0.085 0.55-0.173 0.772-0.265 0.229-0.091 0.491-0.299 0.786-0.625 0.302-0.325 0.481-0.769 0.537-1.332v0c0.141-1.428-0.84-2.246-2.943-2.454v0c-0.12-0.012-0.206 0.004-0.261 0.049-0.048 0.052-0.08 0.159-0.095 0.321v0c-0.297 1.782-0.487 3.102-0.572 3.96v0z" fill="#ffffff" data-fill-palette-color="primary"></path><path d="M172.182 15.473c-0.973-0.245-1.783-0.678-2.428-1.3-0.645-0.621-1.071-1.377-1.277-2.267-0.213-0.892-0.189-1.855 0.071-2.89v0c0.281-1.117 0.788-2.061 1.521-2.831 0.733-0.77 1.605-1.298 2.618-1.583 1.013-0.292 2.065-0.3 3.154-0.026v0c0.994 0.25 1.817 0.687 2.469 1.31 0.652 0.623 1.086 1.377 1.301 2.262 0.222 0.887 0.202 1.847-0.058 2.882v0c-0.281 1.117-0.788 2.061-1.522 2.831-0.74 0.769-1.623 1.297-2.65 1.586-1.022 0.297-2.088 0.306-3.199 0.026zM172.968 14.566c1.042 0.262 1.983 0.098 2.824-0.492 0.832-0.585 1.406-1.505 1.721-2.759v0c0.238-0.946 0.293-1.817 0.166-2.615-0.129-0.79-0.429-1.453-0.9-1.986-0.472-0.527-1.079-0.883-1.818-1.07v0c-1.021-0.257-1.938-0.09-2.75 0.5-0.81 0.583-1.373 1.502-1.688 2.757v0c-0.238 0.946-0.297 1.817-0.176 2.612 0.122 0.789 0.408 1.451 0.856 1.986 0.457 0.53 1.045 0.886 1.765 1.067z" fill="#ffffff" data-fill-palette-color="primary"></path><path d="M180.98 17.968l0.418-0.819c0.561 0.089 0.962 0.071 1.202-0.052 0.24-0.124 0.445-0.422 0.614-0.895v0l2.409-6.614c0.124-0.346 0.165-0.594 0.121-0.745-0.043-0.151-0.188-0.27-0.434-0.359v0l-0.576-0.184-0.011-0.095 0.416-0.751c0.166 0.06 0.49 0.183 0.971 0.371 0.481 0.188 1.007 0.384 1.579 0.59v0c2.162 0.776 3.788 1.289 4.877 1.537v0l0.041 0.138c-0.082 0.143-0.273 0.477-0.573 1-0.291 0.519-0.574 1.086-0.848 1.701v0l-1.019-0.299c0.019-0.053 0.06-0.147 0.124-0.282 0.063-0.135 0.12-0.272 0.17-0.412v0c0.131-0.366 0.177-0.639 0.137-0.818-0.034-0.177-0.189-0.342-0.465-0.494-0.276-0.152-0.756-0.35-1.442-0.596v0c-0.372-0.134-0.632-0.216-0.779-0.246-0.147-0.03-0.258-0.014-0.333 0.049-0.066 0.059-0.143 0.189-0.23 0.39v0l-1.314 3.189 1.729 0.644c0.226 0.081 0.557 0.174 0.992 0.277 0.432 0.095 0.72 0.161 0.864 0.198v0l0.051 0.142-0.627 1.025c-0.14-0.05-0.41-0.155-0.811-0.314-0.401-0.159-0.824-0.319-1.27-0.478v0c-0.386-0.139-0.837-0.263-1.353-0.373v0l-0.945 2.443c-0.155 0.432-0.209 0.74-0.162 0.921 0.041 0.18 0.214 0.325 0.52 0.435v0c0.226 0.081 0.463 0.155 0.709 0.221 0.24 0.064 0.403 0.111 0.49 0.142v0l0.024 0.121-0.48 0.864c-0.175-0.078-0.513-0.214-1.013-0.409-0.507-0.197-1.024-0.39-1.549-0.579v0c-0.406-0.146-0.84-0.275-1.303-0.388-0.465-0.107-0.772-0.172-0.921-0.196z" fill="#ffffff" data-fill-palette-color="primary"></path><path d="M201.861 27.251c-1.179-0.627-2.081-1.423-2.705-2.388-0.62-0.971-0.929-2.039-0.924-3.205 0.007-1.157 0.338-2.35 0.992-3.58v0c0.694-1.304 1.614-2.327 2.761-3.07 1.144-0.736 2.397-1.127 3.758-1.171 1.351-0.042 2.679 0.284 3.983 0.978v0c0.487 0.259 0.963 0.56 1.428 0.904 0.463 0.334 0.849 0.632 1.158 0.893 0.307 0.251 0.5 0.414 0.581 0.489v0l0.01 0.161c-0.068 0.068-0.21 0.237-0.425 0.506-0.222 0.266-0.495 0.621-0.819 1.066-0.334 0.447-0.662 0.929-0.985 1.445v0l-0.986-0.428c0.046-0.056 0.123-0.171 0.232-0.345 0.112-0.165 0.227-0.359 0.347-0.584v0c0.644-1.21 0.005-2.327-1.917-3.35v0c-0.861-0.458-1.73-0.652-2.608-0.582-0.878 0.07-1.694 0.392-2.448 0.967-0.764 0.578-1.42 1.382-1.967 2.412v0c-0.604 1.136-0.948 2.234-1.032 3.293-0.087 1.066 0.08 2.016 0.502 2.849 0.428 0.836 1.088 1.491 1.98 1.966v0c0.886 0.471 1.733 0.602 2.542 0.392 0.812-0.217 1.623-0.786 2.433-1.708v0l0.981 0.414c-0.144 0.18-0.459 0.569-0.945 1.166-0.49 0.604-0.917 1.189-1.282 1.756v0l-0.211 0.104c-0.007 0.012-0.246-0.019-0.719-0.094-0.472-0.075-1.036-0.211-1.692-0.408-0.656-0.197-1.33-0.479-2.023-0.848z" fill="#ffffff" data-fill-palette-color="primary"></path><path d="M212.966 34.008c-0.829-0.566-1.438-1.253-1.828-2.059-0.391-0.806-0.529-1.663-0.414-2.569 0.109-0.91 0.464-1.806 1.066-2.687v0c0.65-0.951 1.452-1.661 2.406-2.13 0.954-0.469 1.955-0.662 3.003-0.58 1.052 0.077 2.042 0.432 2.97 1.066v0c0.846 0.578 1.467 1.273 1.863 2.083 0.396 0.81 0.542 1.668 0.438 2.572-0.099 0.908-0.449 1.803-1.052 2.685v0c-0.65 0.951-1.452 1.661-2.406 2.13-0.96 0.465-1.972 0.655-3.035 0.571-1.062-0.075-2.065-0.436-3.011-1.082zM214.017 33.429c0.887 0.606 1.827 0.778 2.82 0.515 0.983-0.261 1.84-0.925 2.569-1.993v0c0.55-0.805 0.904-1.604 1.06-2.396 0.152-0.786 0.1-1.511-0.157-2.175-0.261-0.658-0.706-1.202-1.336-1.633v0c-0.869-0.594-1.787-0.755-2.753-0.482-0.962 0.267-1.807 0.935-2.537 2.003v0c-0.55 0.805-0.907 1.602-1.069 2.39-0.158 0.782-0.119 1.502 0.116 2.159 0.245 0.656 0.674 1.193 1.287 1.612z" fill="#ffffff" data-fill-palette-color="primary"></path><path d="M224.807 43.46c1.544-4.03 2.656-6.996 3.336-8.9v0l-0.088-0.076c-0.508 0.495-1.46 1.422-2.857 2.782-1.392 1.355-2.151 2.104-2.277 2.248v0c-0.126 0.144-0.182 0.278-0.168 0.402 0.013 0.114 0.096 0.239 0.25 0.374v0l0.534 0.468-0.009 0.09-0.699 0.558c-0.101-0.088-0.286-0.264-0.553-0.527-0.273-0.267-0.548-0.522-0.825-0.764v0c-0.223-0.195-0.474-0.392-0.753-0.588-0.279-0.197-0.465-0.322-0.558-0.376v0l0.672-0.623c0.32 0.214 0.601 0.305 0.844 0.274 0.243-0.031 0.538-0.201 0.883-0.51v0c0.751-0.676 1.802-1.635 3.151-2.877 1.35-1.232 2.1-1.933 2.249-2.103v0c0.195-0.223 0.25-0.462 0.163-0.717-0.077-0.255-0.319-0.58-0.726-0.974v0l0.029-0.129 0.601-0.446c0.113 0.118 0.317 0.319 0.611 0.605 0.3 0.291 0.593 0.561 0.881 0.813v0c0.245 0.214 0.475 0.407 0.692 0.577 0.217 0.171 0.362 0.279 0.435 0.324v0c-0.572 1.33-1.095 2.587-1.567 3.771-0.477 1.189-0.851 2.143-1.123 2.863-0.263 0.719-0.423 1.17-0.481 1.354v0l0.08 0.07c0.392-0.201 1.306-0.688 2.742-1.46 1.431-0.777 3.024-1.664 4.781-2.663v0c0.078 0.05 0.169 0.124 0.27 0.222 0.102 0.098 0.203 0.192 0.305 0.28v0c0.113 0.118 0.287 0.279 0.52 0.484v0c0.176 0.154 0.443 0.369 0.802 0.645 0.359 0.277 0.599 0.458 0.72 0.546v0l-0.01 0.076-0.589 0.512c-0.435-0.297-0.777-0.459-1.024-0.488-0.247-0.029-0.466 0.066-0.658 0.285v0c-0.195 0.223-0.777 0.963-1.745 2.22-0.963 1.261-1.769 2.344-2.42 3.249v0c-0.389 0.552-0.606 0.944-0.65 1.178-0.045 0.233 0.037 0.441 0.244 0.622v0l0.405 0.326-0.01 0.076-0.706 0.566c-0.09-0.079-0.259-0.236-0.505-0.47-0.246-0.234-0.513-0.477-0.8-0.728v0c-0.293-0.256-0.636-0.529-1.031-0.818-0.4-0.284-0.61-0.435-0.631-0.454v0l0.664-0.63c0.325 0.219 0.591 0.334 0.797 0.345 0.211 0.006 0.405-0.092 0.581-0.294v0c0.177-0.202 0.814-1.049 1.912-2.539 1.102-1.496 1.848-2.515 2.238-3.057v0l-0.08-0.07c-2.13 1.104-4.89 2.573-8.278 4.406v0z" fill="#ffffff" data-fill-palette-color="primary"></path><path d="M236.53 55.233c2.057-3.794 3.546-6.59 4.468-8.389v0l-0.077-0.088c-0.568 0.424-1.633 1.22-3.196 2.386-1.557 1.162-2.407 1.806-2.55 1.932v0c-0.143 0.126-0.216 0.252-0.22 0.377-0.002 0.115 0.064 0.249 0.199 0.403v0l0.47 0.533-0.021 0.089-0.766 0.462c-0.089-0.101-0.249-0.299-0.48-0.594-0.236-0.301-0.475-0.589-0.718-0.865v0c-0.196-0.223-0.419-0.45-0.67-0.682-0.251-0.231-0.419-0.38-0.505-0.445v0l0.748-0.531c0.289 0.254 0.556 0.381 0.802 0.382 0.245 0.001 0.559-0.129 0.941-0.39v0c0.833-0.572 2-1.386 3.5-2.442 1.499-1.045 2.334-1.643 2.504-1.792v0c0.223-0.196 0.308-0.426 0.254-0.69-0.043-0.263-0.241-0.616-0.593-1.059v0l0.046-0.125 0.654-0.364c0.097 0.131 0.272 0.358 0.528 0.68 0.259 0.327 0.515 0.634 0.767 0.921v0c0.215 0.244 0.418 0.465 0.611 0.663 0.193 0.198 0.322 0.324 0.388 0.378v0c-0.741 1.244-1.423 2.423-2.044 3.534-0.628 1.116-1.123 2.014-1.488 2.691-0.354 0.678-0.572 1.105-0.653 1.28v0l0.07 0.08c0.415-0.149 1.385-0.512 2.909-1.09 1.52-0.583 3.216-1.256 5.088-2.017v0c0.071 0.06 0.151 0.145 0.239 0.256 0.088 0.111 0.176 0.217 0.265 0.317v0c0.097 0.131 0.248 0.314 0.453 0.548v0c0.154 0.175 0.391 0.423 0.711 0.744 0.32 0.321 0.534 0.533 0.643 0.635v0l-0.02 0.074-0.651 0.431c-0.393-0.351-0.71-0.556-0.952-0.617-0.241-0.061-0.471 0.005-0.689 0.196v0c-0.223 0.196-0.896 0.854-2.02 1.974-1.119 1.125-2.06 2.094-2.823 2.906v0c-0.458 0.496-0.724 0.857-0.798 1.083-0.075 0.226-0.021 0.442 0.161 0.648v0l0.359 0.377-0.02 0.073-0.774 0.469c-0.079-0.09-0.226-0.267-0.439-0.532-0.213-0.264-0.446-0.539-0.698-0.826v0c-0.257-0.292-0.562-0.607-0.916-0.945-0.359-0.334-0.548-0.511-0.567-0.532v0l0.741-0.538c0.294 0.259 0.542 0.408 0.745 0.446 0.208 0.033 0.413-0.039 0.615-0.216v0c0.202-0.177 0.944-0.933 2.226-2.268 1.288-1.339 2.16-2.252 2.618-2.739v0l-0.07-0.08c-2.256 0.817-5.183 1.913-8.783 3.289v0z" fill="#ffffff" data-fill-palette-color="primary"></path><path d="M243.381 63.333l0.832-0.439c0.364 0.41 0.684 0.634 0.961 0.674 0.277 0.039 0.622-0.085 1.034-0.372v0l5.79-4.003c0.301-0.21 0.478-0.39 0.53-0.538 0.052-0.148 0.003-0.329-0.147-0.544v0l-0.363-0.483 0.045-0.084 0.774-0.372c0.101 0.145 0.294 0.433 0.577 0.864 0.284 0.431 0.6 0.896 0.948 1.394v0c1.416 2.028 2.517 3.488 3.302 4.379v0l-0.053 0.128c-0.154 0.064-0.496 0.221-1.028 0.472-0.53 0.241-1.083 0.536-1.657 0.885v0l-0.683-0.829c0.046-0.032 0.132-0.083 0.256-0.153 0.124-0.069 0.247-0.146 0.368-0.231v0c0.319-0.222 0.512-0.422 0.579-0.598 0.063-0.182 0.015-0.429-0.143-0.741-0.158-0.312-0.483-0.822-0.976-1.529v0c-0.227-0.325-0.391-0.542-0.494-0.651-0.102-0.11-0.202-0.16-0.3-0.152-0.088 0.01-0.226 0.071-0.414 0.185v0l-2.663 1.704 1.02 1.499c0.154 0.22 0.399 0.528 0.734 0.922 0.342 0.391 0.567 0.652 0.676 0.783v0l-0.047 0.136-1.091 0.438c-0.093-0.133-0.271-0.401-0.534-0.803-0.263-0.402-0.549-0.824-0.857-1.264v0c-0.235-0.336-0.533-0.696-0.896-1.081v0c-0.946 0.608-1.79 1.172-2.532 1.689v0c-0.278 0.194-0.458 0.35-0.54 0.468-0.072 0.119-0.076 0.268-0.011 0.447 0.07 0.175 0.229 0.439 0.476 0.793v0c0.55 0.788 0.982 1.327 1.296 1.616 0.304 0.288 0.618 0.422 0.941 0.403 0.323-0.019 0.787-0.175 1.393-0.468v0l0.628 0.752-0.039 0.13c-0.158 0.058-0.515 0.213-1.072 0.464-0.553 0.257-1.115 0.545-1.684 0.865v0l-0.16-0.043c-0.219-0.338-0.677-1.032-1.374-2.08-0.697-1.048-1.27-1.893-1.719-2.536v0c-0.344-0.493-0.686-0.939-1.025-1.34-0.342-0.391-0.561-0.643-0.658-0.756z" fill="#ffffff" data-fill-palette-color="primary"></path><path d="M254.149 80.873c-0.158-0.284-0.193-0.645-0.106-1.082 0.088-0.437 0.282-0.902 0.583-1.393v0l1.935-3.214-0.701-1.259-2.095 1.119c-0.37 0.206-0.622 0.379-0.756 0.517-0.136 0.148-0.187 0.311-0.153 0.487 0.033 0.176 0.145 0.449 0.335 0.82v0l-0.044 0.073-0.819 0.25c-0.074-0.161-0.221-0.447-0.442-0.858-0.221-0.411-0.447-0.823-0.677-1.237v0c-0.224-0.401-0.424-0.747-0.602-1.036-0.177-0.289-0.302-0.483-0.372-0.581v0l0.864-0.3c0.333 0.438 0.619 0.691 0.86 0.759 0.24 0.068 0.574-0.016 1-0.254v0l6.202-3.419c0.309-0.172 0.496-0.329 0.562-0.471 0.066-0.142 0.039-0.321-0.081-0.537v0l-0.323-0.536 0.043-0.097 0.803-0.302c0.072 0.13 0.204 0.38 0.394 0.751 0.191 0.371 0.386 0.736 0.586 1.094v0c0.21 0.377 0.443 0.773 0.698 1.189 0.256 0.416 0.427 0.701 0.513 0.855v0c0.585 1.05 0.826 1.991 0.724 2.824-0.099 0.84-0.531 1.473-1.296 1.9v0c-0.593 0.33-1.254 0.436-1.984 0.316-0.724-0.123-1.452-0.457-2.185-1.003v0l-1.563 3.031c-0.288 0.573-0.451 1.056-0.491 1.45-0.033 0.391 0.062 0.787 0.286 1.188v0l-0.052 0.126-0.653 0.243zM257.619 75.056c0.236 0.192 0.456 0.353 0.657 0.484 0.205 0.136 0.526 0.233 0.962 0.289 0.439 0.063 0.906-0.044 1.4-0.319v0c1.253-0.698 1.366-1.97 0.338-3.817v0c-0.058-0.105-0.121-0.167-0.189-0.186-0.07-0.01-0.176 0.025-0.318 0.105v0c-1.633 0.772-2.826 1.368-3.579 1.787v0z" fill="#ffffff" data-fill-palette-color="primary"></path><path d="M258.079 89.29c-0.67-1.535-0.76-2.942-0.269-4.22 0.491-1.278 1.497-2.25 3.018-2.915v0c1.069-0.467 2.135-0.639 3.199-0.518 1.066 0.128 2.03 0.533 2.89 1.214 0.867 0.678 1.546 1.581 2.038 2.707v0c0.178 0.408 0.334 0.845 0.468 1.311 0.141 0.463 0.242 0.862 0.304 1.198 0.068 0.333 0.113 0.541 0.133 0.624v0l-0.088 0.143c-0.07 0.015-0.245 0.049-0.522 0.101-0.275 0.059-0.632 0.141-1.072 0.248-0.43 0.111-0.884 0.255-1.361 0.433v0l-0.504-0.995c0.039-0.017 0.136-0.052 0.29-0.104 0.155-0.052 0.329-0.121 0.524-0.205v0c0.946-0.413 1.087-1.377 0.425-2.893v0c-0.461-1.056-1.172-1.74-2.134-2.052-0.965-0.303-2.06-0.188-3.284 0.346v0c-1.354 0.591-2.291 1.386-2.811 2.385-0.517 0.989-0.539 2.025-0.067 3.106v0c0.314 0.719 0.759 1.207 1.334 1.465 0.569 0.261 1.31 0.307 2.224 0.139v0l0.519 0.977c-0.179 0.032-0.576 0.12-1.191 0.266-0.612 0.152-1.178 0.314-1.696 0.486v0l-0.216-0.045c-0.063-0.073-0.212-0.239-0.449-0.498-0.237-0.259-0.513-0.628-0.83-1.106-0.321-0.469-0.611-1.002-0.872-1.598z" fill="#ffffff" data-fill-palette-color="primary"></path><path d="M260.92 96.409l0.923-0.178c0.229 0.498 0.471 0.806 0.725 0.923 0.254 0.118 0.62 0.099 1.097-0.056v0l6.702-2.151c0.349-0.114 0.57-0.234 0.663-0.361 0.092-0.127 0.098-0.314 0.017-0.563v0l-0.207-0.568 0.067-0.067 0.85-0.132c0.055 0.168 0.155 0.499 0.301 0.995 0.146 0.495 0.314 1.031 0.503 1.609v0c0.767 2.352 1.397 4.068 1.89 5.149v0l-0.088 0.106c-0.166 0.017-0.539 0.068-1.121 0.154-0.577 0.077-1.191 0.199-1.843 0.366v0l-0.413-0.991c0.054-0.018 0.15-0.041 0.289-0.072 0.139-0.03 0.279-0.069 0.42-0.115v0c0.37-0.12 0.612-0.255 0.727-0.404 0.113-0.156 0.139-0.406 0.079-0.75-0.06-0.345-0.224-0.927-0.492-1.747v0c-0.123-0.376-0.217-0.632-0.283-0.766-0.066-0.135-0.147-0.212-0.243-0.233-0.087-0.016-0.237 0.003-0.45 0.057v0l-3.043 0.858 0.542 1.73c0.083 0.255 0.228 0.621 0.435 1.096 0.214 0.473 0.353 0.788 0.42 0.945v0l-0.085 0.117-1.171 0.103c-0.05-0.155-0.143-0.462-0.279-0.924-0.136-0.461-0.286-0.947-0.452-1.458v0c-0.127-0.39-0.309-0.821-0.545-1.295v0c-1.082 0.308-2.052 0.602-2.913 0.883v0c-0.323 0.105-0.54 0.202-0.652 0.29-0.103 0.093-0.15 0.235-0.14 0.425 0.017 0.188 0.092 0.487 0.225 0.897v0c0.298 0.914 0.555 1.555 0.772 1.923 0.208 0.363 0.469 0.583 0.783 0.659 0.315 0.076 0.804 0.061 1.469-0.044v0l0.383 0.901-0.075 0.113c-0.168 0.01-0.555 0.054-1.16 0.133-0.604 0.085-1.225 0.199-1.863 0.34v0l-0.141-0.088c-0.111-0.387-0.349-1.184-0.711-2.388-0.363-1.205-0.666-2.18-0.909-2.927v0c-0.186-0.571-0.384-1.098-0.593-1.579-0.214-0.473-0.35-0.778-0.41-0.915z" fill="#ffffff" data-fill-palette-color="primary"></path><path d="M5.563 139.81c0-0.912 0.739-1.651 1.651-1.651 0.912 0 1.651 0.739 1.651 1.651 0 0.912-0.739 1.651-1.651 1.65-0.912 0-1.651-0.739-1.651-1.65z" fill="#ffffff" data-fill-palette-color="primary"></path><path d="M272.457 139.81c0-0.912 0.739-1.651 1.651-1.651 0.912 0 1.651 0.739 1.651 1.651 0 0.912-0.739 1.651-1.651 1.65-0.912 0-1.651-0.739-1.651-1.65z" fill="#ffffff" data-fill-palette-color="primary"></path></g><g id="text-1"><path d="M7.772 181.605c0.621-0.432 1.978-1.395 4.07-2.89 2.09-1.501 4.127-2.996 6.111-4.482v0c0.359-0.259 0.577-0.57 0.653-0.933 0.083-0.365 0.043-0.804-0.119-1.317v0l0.073-0.047 0.933-0.189c0.062 0.18 0.16 0.506 0.293 0.976 0.142 0.474 0.289 0.932 0.442 1.373v0c0.208 0.601 0.45 1.191 0.724 1.768 0.27 0.587 0.449 0.963 0.536 1.127v0l-0.116 0.119-0.832 0.187c-0.301-0.674-0.546-1.112-0.736-1.316-0.197-0.201-0.439-0.252-0.726-0.152v0c-0.227 0.079-0.987 0.551-2.281 1.417-1.284 0.871-2.571 1.754-3.862 2.65-1.282 0.9-2.122 1.486-2.521 1.759v0l0.045 0.13 8.897 0.163 1.004-0.763c0.354-0.272 0.568-0.585 0.639-0.939 0.081-0.35 0.045-0.79-0.109-1.32v0l0.066-0.068 0.944-0.158c0.06 0.174 0.158 0.499 0.293 0.976 0.142 0.474 0.289 0.932 0.441 1.372v0c0.18 0.521 0.414 1.087 0.701 1.699 0.28 0.614 0.466 1.013 0.56 1.197v0l-0.12 0.109-0.829 0.197c-0.307-0.694-0.556-1.142-0.746-1.346-0.194-0.194-0.442-0.24-0.743-0.136v0c-0.287 0.099-1.591 0.947-3.91 2.543-2.311 1.6-3.886 2.699-4.726 3.296v0l0.041 0.121c0.089-0.001 0.188 0.002 0.296 0.01 0.098 0.003 0.218 0.003 0.358-0.001v0c6.311 0.149 9.664 0.155 10.059 0.018v0c0.26-0.09 0.409-0.265 0.446-0.524 0.031-0.257-0.04-0.633-0.211-1.128v0l-0.353-1.022 0.066-0.067 0.94-0.169c0.049 0.185 0.155 0.578 0.319 1.18 0.157 0.604 0.33 1.18 0.519 1.727v0c0.171 0.494 0.335 0.946 0.492 1.356 0.154 0.403 0.266 0.671 0.334 0.804v0l-1.024 0.186c-0.168-0.398-0.337-0.661-0.508-0.789-0.176-0.119-0.485-0.18-0.928-0.183v0l-12.604-0.472-0.892-1.117c0.432-0.307 1.427-1.01 2.983-2.109 1.55-1.097 3.164-2.258 4.842-3.482v0l-0.042-0.121-9.274-0.054z" fill="#ffffff" data-fill-palette-color="primary"></path><path d="M14.224 198.715l0.843-0.303c0.329 0.436 0.624 0.695 0.887 0.777 0.253 0.079 0.594 0.011 1.024-0.204v0l6.201-3.078c0.322-0.161 0.521-0.308 0.597-0.441 0.07-0.13 0.046-0.311-0.071-0.545v0l-0.284-0.522 0.047-0.095 0.801-0.246c0.063 0.126 0.179 0.373 0.346 0.739 0.164 0.36 0.337 0.721 0.517 1.081v0c0.152 0.303 0.349 0.651 0.593 1.043 0.247 0.398 0.409 0.661 0.489 0.787v0l-0.839 0.313c-0.205-0.284-0.375-0.472-0.508-0.564-0.136-0.098-0.291-0.131-0.465-0.1-0.174 0.032-0.447 0.125-0.82 0.28v0l-2.403 1.072 1.238 2.546c0.345 0.689 0.765 1.411 1.261 2.166v0l2.617-1.285c0.322-0.161 0.521-0.308 0.597-0.441 0.07-0.13 0.046-0.311-0.071-0.545v0l-0.294-0.541 0.057-0.075 0.796-0.257c0.047 0.126 0.152 0.359 0.313 0.697 0.164 0.344 0.327 0.678 0.489 1.001v0c0.155 0.31 0.364 0.679 0.626 1.109 0.262 0.43 0.435 0.711 0.517 0.844v0l-0.825 0.341c-0.25-0.373-0.462-0.599-0.635-0.678-0.177-0.07-0.419-0.039-0.726 0.091v0c-1.049 0.462-2.217 0.987-3.503 1.574-1.286 0.588-2.274 1.055-2.963 1.399v0c-0.417 0.209-0.67 0.39-0.759 0.546-0.092 0.164-0.069 0.382 0.067 0.654v0c0.076 0.152 0.153 0.291 0.232 0.417 0.076 0.12 0.125 0.202 0.147 0.247v0l-0.047 0.095-0.858 0.227c-0.07-0.139-0.198-0.411-0.384-0.815-0.183-0.398-0.383-0.812-0.598-1.242v0l-0.991-1.934 0.853-0.238c0.168 0.335 0.334 0.564 0.498 0.688 0.171 0.12 0.379 0.158 0.626 0.113 0.24-0.041 0.575-0.169 1.005-0.384v0l2.181-1.091-1.101-2.247c-0.104-0.209-0.337-0.618-0.697-1.227-0.364-0.616-0.607-1.032-0.73-1.247v0l-2.56 1.209c-0.417 0.209-0.673 0.392-0.768 0.55-0.098 0.168-0.079 0.387 0.057 0.659v0c0.079 0.158 0.157 0.297 0.232 0.417 0.079 0.126 0.134 0.205 0.166 0.237v0l-0.057 0.076-0.843 0.257c-0.054-0.107-0.147-0.31-0.28-0.607-0.133-0.297-0.281-0.61-0.446-0.939v0c-0.24-0.48-0.522-0.996-0.844-1.545-0.323-0.55-0.506-0.822-0.55-0.816z" fill="#ffffff" data-fill-palette-color="primary"></path><path d="M21.766 212.896l0.826-0.401c0.337 0.422 0.643 0.658 0.918 0.708 0.266 0.048 0.607-0.061 1.024-0.327v0l5.826-3.7c0.304-0.194 0.486-0.361 0.548-0.501 0.056-0.136 0.013-0.314-0.128-0.535v0l-0.337-0.488 0.048-0.082 0.771-0.329c0.091 0.143 0.268 0.433 0.53 0.869 0.262 0.436 0.553 0.905 0.873 1.405v0c1.306 2.042 2.327 3.516 3.065 4.42v0l-0.064 0.116c-0.146 0.06-0.484 0.2-1.014 0.422-0.533 0.215-1.089 0.482-1.665 0.8v0l-0.631-0.83c0.048-0.03 0.135-0.078 0.262-0.142 0.121-0.06 0.244-0.131 0.368-0.21v0c0.316-0.202 0.508-0.392 0.579-0.571 0.068-0.169 0.031-0.41-0.11-0.723-0.135-0.316-0.429-0.829-0.882-1.537v0c-0.213-0.333-0.367-0.554-0.461-0.662-0.104-0.11-0.2-0.162-0.288-0.155-0.088 0.006-0.229 0.062-0.421 0.168v0l-2.673 1.546 0.947 1.52c0.141 0.22 0.367 0.529 0.679 0.925 0.316 0.402 0.523 0.668 0.623 0.797v0l-0.043 0.129-1.099 0.388c-0.084-0.131-0.247-0.4-0.49-0.807-0.243-0.407-0.504-0.827-0.782-1.262v0c-0.221-0.345-0.498-0.713-0.832-1.104v0c-0.952 0.558-1.8 1.075-2.544 1.551v0c-0.28 0.179-0.463 0.325-0.549 0.44-0.081 0.11-0.092 0.256-0.035 0.437 0.063 0.178 0.207 0.442 0.432 0.794v0c0.51 0.798 0.912 1.342 1.206 1.631 0.292 0.3 0.595 0.446 0.91 0.438 0.318-0.002 0.777-0.136 1.378-0.403v0l0.591 0.768-0.044 0.128c-0.154 0.048-0.511 0.184-1.072 0.409-0.551 0.227-1.11 0.487-1.677 0.782v0l-0.163-0.059c-0.197-0.335-0.617-1.031-1.26-2.088-0.639-1.051-1.165-1.902-1.58-2.551v0c-0.32-0.5-0.638-0.951-0.954-1.353-0.316-0.402-0.518-0.659-0.606-0.771z" fill="#ffffff" data-fill-palette-color="primary"></path><path d="M34.154 230.322c-0.201-0.255-0.294-0.601-0.278-1.036 0.016-0.436 0.133-0.915 0.351-1.438v0l1.383-3.415-0.88-1.115-1.857 1.411c-0.327 0.258-0.546 0.467-0.655 0.625-0.105 0.164-0.129 0.327-0.073 0.49 0.061 0.168 0.21 0.415 0.449 0.74v0l-0.024 0.072-0.754 0.38c-0.098-0.147-0.285-0.401-0.559-0.761-0.279-0.365-0.563-0.731-0.853-1.096v0c-0.276-0.349-0.524-0.653-0.745-0.911-0.217-0.252-0.366-0.418-0.448-0.498v0l0.791-0.435c0.388 0.378 0.707 0.581 0.955 0.61 0.238 0.028 0.546-0.107 0.923-0.404v0l5.464-4.286c0.272-0.215 0.431-0.395 0.478-0.54 0.042-0.141-0.014-0.309-0.167-0.503v0l-0.397-0.469 0.027-0.103 0.734-0.404c0.088 0.111 0.253 0.332 0.496 0.662 0.239 0.325 0.485 0.648 0.739 0.97v0c0.258 0.327 0.545 0.673 0.859 1.037 0.314 0.364 0.524 0.613 0.629 0.746v0c0.727 0.921 1.107 1.796 1.14 2.625 0.034 0.819-0.284 1.494-0.955 2.024v0c-0.527 0.416-1.15 0.624-1.87 0.625-0.724-0.005-1.479-0.214-2.266-0.629v0l-1.045 3.176c-0.192 0.601-0.275 1.095-0.25 1.48 0.031 0.381 0.186 0.749 0.466 1.104v0l-0.039 0.139-0.589 0.331zM36.602 224.149c0.265 0.142 0.503 0.26 0.713 0.356 0.215 0.101 0.542 0.144 0.981 0.131 0.434-0.009 0.867-0.185 1.3-0.527v0c1.104-0.871 1.012-2.123-0.276-3.753v0c-0.07-0.089-0.138-0.134-0.203-0.138-0.065-0.003-0.161 0.046-0.289 0.148v0c-1.461 1-2.522 1.761-3.182 2.282v0z" fill="#ffffff" data-fill-palette-color="primary"></path><path d="M37.798 234.322l0.733-0.552c0.412 0.35 0.757 0.523 1.037 0.52 0.27-0.004 0.584-0.176 0.942-0.518v0l5.01-4.746c0.261-0.249 0.408-0.448 0.442-0.597 0.028-0.144-0.048-0.311-0.228-0.5v0l-0.425-0.415 0.032-0.09 0.694-0.47c0.117 0.123 0.346 0.373 0.687 0.751 0.341 0.378 0.716 0.782 1.126 1.212v0c1.673 1.755 2.957 3.005 3.854 3.751v0l-0.041 0.127c-0.132 0.087-0.437 0.289-0.914 0.608-0.482 0.313-0.976 0.681-1.481 1.104v0l-0.778-0.693c0.041-0.039 0.117-0.102 0.229-0.19 0.107-0.082 0.214-0.175 0.322-0.277v0c0.271-0.258 0.424-0.482 0.458-0.672 0.034-0.179-0.048-0.409-0.246-0.688-0.193-0.285-0.58-0.731-1.16-1.34v0c-0.273-0.286-0.466-0.474-0.579-0.561-0.123-0.088-0.227-0.12-0.312-0.098-0.086 0.023-0.212 0.105-0.381 0.246v0l-2.328 2.029 1.22 1.311c0.18 0.189 0.462 0.448 0.844 0.778 0.387 0.334 0.642 0.555 0.764 0.663v0l-0.018 0.135-1.004 0.591c-0.107-0.113-0.319-0.345-0.636-0.698-0.316-0.353-0.653-0.716-1.009-1.089v0c-0.283-0.297-0.625-0.605-1.027-0.924v0c-0.827 0.73-1.561 1.4-2.2 2.009v0c-0.24 0.229-0.392 0.408-0.456 0.536-0.058 0.124-0.041 0.269 0.05 0.436 0.096 0.162 0.288 0.394 0.576 0.697v0c0.653 0.686 1.152 1.142 1.496 1.37 0.344 0.238 0.67 0.323 0.977 0.256 0.311-0.063 0.737-0.282 1.275-0.659v0l0.727 0.64-0.018 0.134c-0.142 0.077-0.467 0.279-0.974 0.607-0.498 0.328-0.996 0.691-1.496 1.089v0l-0.172-0.027c-0.258-0.291-0.803-0.894-1.636-1.809-0.828-0.91-1.508-1.643-2.04-2.201v0c-0.41-0.43-0.808-0.812-1.194-1.146-0.387-0.334-0.634-0.548-0.742-0.64z" fill="#ffffff" data-fill-palette-color="primary"></path><path d="M53.55 248.859c-0.294-0.232-0.639-0.474-1.036-0.725-0.396-0.251-0.659-0.409-0.787-0.474v0l0.636-0.632c0.483 0.256 0.86 0.365 1.132 0.328 0.263-0.036 0.539-0.236 0.828-0.602v0l4.339-5.449c0.215-0.272 0.329-0.484 0.341-0.636 0.008-0.147-0.085-0.297-0.279-0.45v0l-0.495-0.365 0.003-0.106 0.621-0.563c0.122 0.096 0.345 0.282 0.669 0.556 0.318 0.27 0.638 0.532 0.959 0.787v0c0.327 0.259 0.677 0.522 1.051 0.79 0.373 0.268 0.631 0.45 0.772 0.544v0c0.898 0.711 1.455 1.436 1.672 2.175 0.207 0.741 0.05 1.441-0.472 2.101v0c-0.36 0.454-0.831 0.748-1.414 0.881-0.573 0.132-1.171 0.101-1.792-0.093v0c0.525 0.623 0.849 1.262 0.97 1.917 0.112 0.656-0.034 1.239-0.438 1.749v0c-0.382 0.482-0.878 0.802-1.488 0.959-0.615 0.162-1.275 0.154-1.98-0.026-0.7-0.175-1.357-0.506-1.972-0.993v0c-0.183-0.145-0.437-0.382-0.763-0.712v0c-0.469-0.443-0.829-0.764-1.077-0.961zM58.054 244.704c0.13 0.121 0.339 0.318 0.628 0.591 0.298 0.272 0.551 0.499 0.758 0.682v0c-0.018 0.022 0.133 0.065 0.453 0.128 0.315 0.069 0.658 0.057 1.029-0.037 0.371-0.094 0.715-0.34 1.031-0.738v0c0.425-0.538 0.546-1.082 0.361-1.635-0.185-0.552-0.677-1.144-1.475-1.775v0c-0.089-0.07-0.162-0.097-0.22-0.08-0.058 0.017-0.139 0.079-0.243 0.186v0c-0.627 0.667-1.401 1.559-2.322 2.678zM57.343 245.534l-1.885 2.28c-0.254 0.321-0.318 0.636-0.192 0.943 0.122 0.313 0.463 0.691 1.022 1.134v0c0.532 0.421 1.058 0.616 1.578 0.586 0.519-0.04 0.966-0.299 1.344-0.775v0c0.351-0.443 0.491-0.923 0.421-1.438-0.071-0.525-0.356-1.065-0.853-1.621v0z" fill="#ffffff" data-fill-palette-color="primary"></path><path d="M66.563 258.327c-1.092-0.693-1.754-1.49-1.986-2.391-0.226-0.897-0.017-1.852 0.628-2.867v0l2.977-4.69c0.193-0.304 0.288-0.533 0.285-0.685-0.013-0.151-0.13-0.296-0.351-0.437v0l-0.503-0.294-0.002-0.077 0.562-0.648c0.137 0.087 0.378 0.248 0.722 0.484 0.35 0.239 0.708 0.474 1.072 0.706v0c0.274 0.174 0.597 0.358 0.968 0.552 0.377 0.197 0.623 0.324 0.738 0.38v0l-0.538 0.689c-0.388-0.18-0.676-0.254-0.863-0.222-0.197 0.034-0.393 0.177-0.588 0.431v0l-2.778 4.138c-0.553 0.871-0.776 1.671-0.67 2.4 0.1 0.725 0.533 1.33 1.296 1.815v0c0.77 0.489 1.478 0.666 2.124 0.532 0.64-0.138 1.193-0.574 1.659-1.307v0c0.481-0.758 1.018-1.623 1.61-2.595 0.592-0.972 1.007-1.659 1.245-2.06v0c0.184-0.343 0.277-0.582 0.278-0.715-0.009-0.131-0.115-0.261-0.318-0.39v0l-0.637-0.38 0.016-0.065 0.562-0.648c0.125 0.08 0.351 0.231 0.678 0.456 0.327 0.224 0.663 0.446 1.008 0.666v0c0.28 0.178 0.591 0.354 0.933 0.529 0.347 0.179 0.572 0.292 0.675 0.341v0l-0.52 0.699c-0.467-0.213-0.791-0.31-0.971-0.29-0.19 0.022-0.37 0.167-0.54 0.436v0l-2.983 4.698c-0.648 1.02-1.476 1.599-2.485 1.738-1.003 0.142-2.104-0.168-3.303-0.929z" fill="#ffffff" data-fill-palette-color="primary"></path><path d="M77.6 264.657c-0.453-0.232-0.849-0.482-1.188-0.751-0.345-0.272-0.61-0.507-0.794-0.705-0.181-0.204-0.291-0.332-0.328-0.382v0l-0.008-0.218c0.048-0.063 0.146-0.199 0.293-0.41 0.147-0.21 0.34-0.509 0.578-0.895 0.241-0.393 0.466-0.794 0.675-1.203v0l0.921 0.365c-0.358 0.698-0.571 1.248-0.641 1.648-0.061 0.398 0.012 0.729 0.218 0.993 0.203 0.271 0.581 0.548 1.134 0.831v0c0.623 0.319 1.192 0.44 1.708 0.363 0.522-0.074 0.899-0.337 1.132-0.79v0c0.151-0.296 0.178-0.612 0.08-0.948-0.098-0.336-0.245-0.653-0.441-0.952-0.199-0.293-0.527-0.746-0.983-1.361v0c-0.621-0.818-1.055-1.537-1.302-2.156-0.25-0.612-0.219-1.224 0.093-1.834v0c0.277-0.541 0.695-0.946 1.254-1.216 0.553-0.273 1.181-0.384 1.886-0.332 0.711 0.054 1.421 0.263 2.132 0.627v0c0.421 0.216 0.806 0.449 1.155 0.699 0.345 0.24 0.614 0.445 0.805 0.614 0.191 0.169 0.305 0.28 0.343 0.331v0l0.003 0.18c-0.096 0.126-0.315 0.414-0.658 0.866-0.343 0.452-0.682 0.953-1.02 1.503v0l-0.793-0.311-0.075-0.134c0.019-0.038 0.068-0.116 0.145-0.236 0.074-0.113 0.157-0.261 0.251-0.443v0c0.258-0.503 0.306-0.923 0.144-1.26-0.161-0.337-0.578-0.677-1.251-1.022v0c-0.541-0.277-1.052-0.38-1.533-0.308-0.487 0.068-0.831 0.297-1.031 0.687v0c-0.197 0.384-0.185 0.803 0.035 1.257 0.211 0.457 0.589 1.044 1.136 1.76v0c0.484 0.621 0.858 1.138 1.123 1.552 0.271 0.417 0.456 0.861 0.556 1.333 0.097 0.478 0.034 0.934-0.189 1.368v0c-0.3 0.585-0.734 1.014-1.302 1.287-0.571 0.263-1.227 0.364-1.966 0.303-0.745-0.064-1.511-0.297-2.297-0.7z" fill="#ffffff" data-fill-palette-color="primary"></path><path d="M85.725 268.505l0.442-0.78c0.547 0.122 0.946 0.129 1.199 0.02 0.243-0.105 0.458-0.379 0.644-0.822v0l2.697-6.376c0.139-0.332 0.195-0.574 0.166-0.723-0.032-0.144-0.168-0.266-0.41-0.367v0l-0.673-0.26-0.006-0.094 0.418-0.722c0.085 0.036 0.3 0.134 0.647 0.294 0.346 0.161 0.81 0.363 1.389 0.606v0c0.306 0.128 0.693 0.268 1.159 0.417 0.46 0.147 0.761 0.242 0.903 0.287v0l-0.423 0.789c-0.465-0.134-0.796-0.177-0.992-0.129-0.193 0.057-0.366 0.233-0.521 0.529v0c-0.507 1.044-1.055 2.205-1.645 3.483-0.59 1.278-1.033 2.272-1.331 2.982v0c-0.18 0.43-0.255 0.736-0.224 0.918 0.035 0.191 0.192 0.345 0.473 0.463v0c0.189 0.079 0.361 0.144 0.516 0.193 0.162 0.053 0.272 0.083 0.329 0.092v0l0.007 0.095-0.473 0.744c-0.163-0.068-0.463-0.202-0.901-0.401-0.431-0.196-0.868-0.387-1.312-0.573v0c-0.358-0.15-0.759-0.292-1.202-0.423-0.443-0.132-0.735-0.212-0.876-0.242z" fill="#ffffff" data-fill-palette-color="primary"></path><path d="M103.565 271.462l1.886-5.997c0.146-0.458 0.033-0.746-0.337-0.864v0l-0.626-0.199-0.015-0.094 0.398-0.763c0.124 0.054 0.355 0.143 0.695 0.265 0.346 0.125 0.697 0.244 1.054 0.358v0c0.303 0.096 0.649 0.188 1.037 0.274 0.395 0.088 0.648 0.143 0.759 0.164v0l-0.35 0.823c-0.415-0.073-0.735-0.056-0.962 0.05-0.224 0.099-0.394 0.305-0.508 0.617v0l-3.08 8.844-0.879-0.035c-0.703-2.337-1.432-4.638-2.187-6.904-0.762-2.267-1.147-3.387-1.156-3.36v0l-0.101-0.032-2.06 6.264c-0.084 0.263-0.101 0.457-0.052 0.584 0.058 0.122 0.181 0.213 0.369 0.274v0l0.835 0.243 0.052 0.083-0.436 0.774c-0.117-0.052-0.358-0.144-0.724-0.275-0.359-0.129-0.741-0.258-1.146-0.387v0c-0.317-0.101-0.659-0.191-1.026-0.271-0.368-0.08-0.611-0.131-0.73-0.154v0l0.371-0.816c0.363 0.071 0.651 0.051 0.865-0.059 0.218-0.101 0.384-0.308 0.497-0.621v0l2.412-6.775c0.109-0.343 0.083-0.611-0.078-0.804-0.159-0.199-0.511-0.422-1.056-0.669v0l-0.045-0.137 0.363-0.652c0.103 0.048 0.31 0.132 0.62 0.253 0.303 0.119 0.613 0.228 0.93 0.329v0c0.303 0.096 0.575 0.175 0.815 0.237 0.24 0.062 0.396 0.096 0.467 0.104v0c0.595 1.999 1.247 4.053 1.956 6.162 0.706 2.116 1.064 3.16 1.072 3.134v0z" fill="#ffffff" data-fill-palette-color="primary"></path><path d="M109.031 276.124l0.291-0.871c0.537 0.055 0.92 0.001 1.149-0.16 0.22-0.156 0.381-0.476 0.483-0.96v0l1.436-6.751c0.074-0.353 0.082-0.6 0.025-0.742-0.058-0.135-0.216-0.229-0.472-0.283v0l-0.585-0.101-0.024-0.091 0.304-0.781c0.166 0.035 0.497 0.111 0.992 0.229 0.495 0.118 1.033 0.238 1.614 0.36v0c2.373 0.497 4.14 0.799 5.303 0.905v0l0.038 0.127c-0.06 0.146-0.196 0.486-0.409 1.019-0.22 0.532-0.418 1.115-0.593 1.749v0l-1.035-0.13c0.012-0.055 0.039-0.151 0.082-0.286 0.041-0.129 0.077-0.265 0.108-0.41v0c0.077-0.367 0.076-0.638-0.003-0.813-0.073-0.167-0.271-0.309-0.593-0.428-0.32-0.125-0.892-0.274-1.716-0.446v0c-0.387-0.081-0.652-0.126-0.795-0.134-0.151-0.003-0.255 0.03-0.313 0.097-0.057 0.067-0.116 0.207-0.174 0.418v0l-0.767 2.992 1.749 0.388c0.256 0.054 0.635 0.108 1.136 0.162 0.508 0.056 0.843 0.094 1.005 0.113v0l0.061 0.121-0.492 1.056c-0.152-0.032-0.459-0.103-0.919-0.214-0.461-0.111-0.943-0.219-1.448-0.325v0c-0.401-0.084-0.858-0.144-1.371-0.179v0c-0.268 1.07-0.492 2.038-0.673 2.903v0c-0.068 0.325-0.092 0.558-0.07 0.7 0.022 0.135 0.118 0.245 0.288 0.331 0.171 0.079 0.461 0.162 0.869 0.247v0c0.927 0.194 1.597 0.288 2.01 0.28 0.419 0.001 0.735-0.113 0.949-0.343 0.221-0.228 0.447-0.65 0.677-1.266v0l0.961 0.115 0.062 0.121c-0.073 0.143-0.226 0.494-0.459 1.052-0.224 0.552-0.429 1.134-0.615 1.745v0l-0.156 0.076c-0.378-0.094-1.169-0.281-2.374-0.563-1.198-0.28-2.174-0.499-2.928-0.656v0c-0.581-0.122-1.126-0.211-1.634-0.267-0.508-0.056-0.833-0.091-0.974-0.106z" fill="#ffffff" data-fill-palette-color="primary"></path><path d="M124.903 278.873c-0.505-0.059-0.964-0.155-1.375-0.289-0.418-0.134-0.749-0.262-0.991-0.382-0.241-0.128-0.388-0.209-0.441-0.244v0l-0.083-0.202c0.023-0.076 0.067-0.238 0.131-0.486 0.065-0.249 0.141-0.596 0.228-1.041 0.088-0.452 0.159-0.906 0.213-1.362v0l0.99 0.019c-0.091 0.779-0.099 1.369-0.025 1.769 0.082 0.394 0.266 0.679 0.552 0.854 0.285 0.183 0.736 0.31 1.353 0.382v0c0.695 0.081 1.271-0.005 1.727-0.257 0.463-0.252 0.725-0.631 0.784-1.137v0c0.038-0.33-0.047-0.635-0.256-0.915-0.209-0.281-0.458-0.527-0.746-0.738-0.289-0.205-0.755-0.515-1.397-0.932v0c-0.868-0.55-1.526-1.071-1.973-1.564-0.448-0.486-0.633-1.07-0.554-1.751v0c0.07-0.604 0.32-1.13 0.75-1.578 0.422-0.449 0.972-0.772 1.65-0.971 0.685-0.198 1.424-0.25 2.217-0.157v0c0.47 0.055 0.912 0.138 1.326 0.251 0.408 0.104 0.731 0.203 0.969 0.294 0.238 0.092 0.384 0.155 0.437 0.19v0l0.066 0.167c-0.046 0.151-0.151 0.498-0.314 1.042-0.163 0.543-0.306 1.131-0.43 1.764v0l-0.852-0.014-0.116-0.099c0.005-0.042 0.023-0.133 0.053-0.271 0.03-0.132 0.056-0.299 0.08-0.503v0c0.066-0.562-0.036-0.972-0.305-1.231-0.269-0.259-0.779-0.432-1.53-0.52v0c-0.604-0.07-1.119 0.012-1.544 0.247-0.433 0.234-0.675 0.569-0.726 1.004v0c-0.05 0.428 0.108 0.817 0.473 1.165 0.357 0.355 0.917 0.772 1.679 1.252v0c0.671 0.413 1.202 0.766 1.595 1.062 0.4 0.296 0.729 0.647 0.987 1.054 0.258 0.414 0.358 0.864 0.301 1.348v0c-0.076 0.653-0.333 1.206-0.77 1.661-0.443 0.446-1.022 0.77-1.735 0.971-0.721 0.201-1.52 0.25-2.398 0.148z" fill="#ffffff" data-fill-palette-color="primary"></path><path d="M136.92 279.716c-0.509-0.015-0.974-0.071-1.395-0.168-0.428-0.098-0.768-0.196-1.02-0.295-0.251-0.106-0.405-0.175-0.46-0.205v0l-0.101-0.194c0.016-0.077 0.046-0.243 0.089-0.496 0.043-0.253 0.089-0.605 0.138-1.056 0.049-0.458 0.08-0.917 0.093-1.376v0l0.989-0.066c-0.023 0.784 0.019 1.372 0.128 1.764 0.116 0.385 0.324 0.653 0.623 0.803 0.299 0.157 0.76 0.245 1.382 0.264v0c0.699 0.021 1.266-0.115 1.698-0.406 0.44-0.291 0.667-0.691 0.682-1.199v0c0.01-0.332-0.102-0.629-0.334-0.891-0.233-0.261-0.502-0.485-0.807-0.671-0.306-0.179-0.796-0.448-1.472-0.807v0c-0.912-0.472-1.613-0.935-2.101-1.388-0.489-0.446-0.723-1.011-0.703-1.696v0c0.018-0.608 0.222-1.153 0.611-1.637 0.382-0.484 0.902-0.854 1.56-1.11 0.665-0.256 1.397-0.372 2.195-0.348v0c0.473 0.014 0.921 0.059 1.343 0.135 0.415 0.069 0.745 0.139 0.991 0.21 0.245 0.071 0.396 0.121 0.451 0.151v0l0.08 0.161c-0.033 0.155-0.107 0.509-0.222 1.065-0.115 0.555-0.207 1.153-0.276 1.795v0l-0.85 0.059-0.125-0.088c0.001-0.042 0.011-0.134 0.029-0.275 0.018-0.134 0.03-0.303 0.037-0.508v0c0.017-0.565-0.12-0.965-0.41-1.2-0.29-0.235-0.813-0.363-1.569-0.386v0c-0.608-0.018-1.113 0.108-1.517 0.38-0.411 0.271-0.623 0.625-0.636 1.062v0c-0.013 0.431 0.178 0.804 0.571 1.12 0.386 0.323 0.98 0.69 1.781 1.103v0c0.704 0.353 1.264 0.66 1.68 0.92 0.424 0.26 0.782 0.582 1.075 0.965 0.292 0.39 0.432 0.829 0.417 1.317v0c-0.019 0.657-0.227 1.231-0.624 1.721-0.403 0.483-0.952 0.856-1.645 1.117-0.701 0.262-1.493 0.38-2.376 0.354z" fill="#ffffff" data-fill-palette-color="primary"></path><path d="M157.17 278.757c-1.63 0.178-2.97-0.148-4.02-0.979-1.058-0.83-1.675-2.053-1.851-3.669v0c-0.124-1.138 0.028-2.189 0.455-3.153 0.429-0.957 1.086-1.74 1.973-2.349 0.893-0.609 1.937-0.979 3.131-1.109v0c0.436-0.048 0.889-0.065 1.359-0.053 0.477 0.005 0.881 0.025 1.212 0.06 0.338 0.034 0.55 0.054 0.636 0.058v0l0.099 0.128c-0.006 0.072-0.023 0.244-0.05 0.518-0.027 0.273-0.055 0.632-0.085 1.075-0.023 0.436-0.022 0.902 0.003 1.397v0l-1.079 0.182c-0.005-0.042-0.009-0.145-0.012-0.308-0.003-0.156-0.015-0.336-0.038-0.54v0c-0.11-1.012-0.97-1.43-2.579-1.254v0c-1.131 0.124-1.979 0.593-2.544 1.408-0.565 0.815-0.777 1.869-0.636 3.162v0c0.158 1.447 0.624 2.559 1.399 3.335 0.781 0.775 1.748 1.099 2.9 0.974v0c0.766-0.084 1.351-0.357 1.755-0.821 0.412-0.457 0.672-1.136 0.78-2.037v0l1.065-0.212c-0.023 0.18-0.054 0.578-0.094 1.194-0.046 0.616-0.062 1.194-0.045 1.732v0l-0.107 0.193c-0.081 0.037-0.281 0.127-0.6 0.268-0.311 0.148-0.735 0.301-1.272 0.459-0.537 0.158-1.122 0.272-1.755 0.341z" fill="#ffffff" data-fill-palette-color="primary"></path><path d="M170.67 276.39l-0.085-0.09-0.103-0.781c0.585-0.17 0.972-0.318 1.162-0.446 0.188-0.135 0.261-0.299 0.219-0.492v0c-0.049-0.228-0.153-0.459-0.312-0.692v0l-0.861-1.527c-0.286 0.047-0.875 0.167-1.766 0.359v0c-0.415 0.089-1.017 0.263-1.808 0.521v0l-0.25 1.702c-0.034 0.347-0.043 0.555-0.028 0.625v0c0.049 0.228 0.164 0.377 0.346 0.445 0.173 0.064 0.439 0.057 0.798-0.02v0l0.912-0.197 0.08 0.07 0.05 0.835c-0.148 0.018-0.477 0.067-0.988 0.148-0.503 0.08-0.997 0.172-1.48 0.276v0c-0.456 0.098-0.862 0.193-1.219 0.285-0.363 0.093-0.607 0.153-0.731 0.179v0l-0.063-0.897c0.302-0.109 0.527-0.273 0.674-0.493 0.148-0.22 0.269-0.561 0.365-1.022v0l1.514-9.166 1.442-0.604 0.16-0.013c0.013 0.062 0.577 1.115 1.691 3.16 1.121 2.043 2.088 3.725 2.9 5.046v0c0.235 0.383 0.48 0.63 0.735 0.742 0.257 0.118 0.628 0.146 1.114 0.084v0l0.07 0.072 0.051 0.792c-0.138 0.03-0.402 0.08-0.792 0.149-0.383 0.068-0.768 0.144-1.155 0.228v0c-0.58 0.125-1.129 0.265-1.644 0.42-0.516 0.155-0.849 0.256-0.998 0.302zM167.244 272.173l1.45-0.313c0.491-0.106 0.998-0.248 1.524-0.427v0l-2.185-3.844-0.146 0.031z" fill="#ffffff" data-fill-palette-color="primary"></path><path d="M184.454 272.694c-2.631-3.324-4.58-5.745-5.845-7.264v0l-0.1 0.033c0.162 0.676 0.466 1.941 0.911 3.796 0.452 1.853 0.708 2.87 0.768 3.051v0c0.057 0.175 0.14 0.289 0.246 0.343 0.105 0.047 0.255 0.039 0.45-0.025v0l0.664-0.218 0.061 0.047 0.13 0.872c-0.128 0.042-0.369 0.11-0.725 0.205-0.363 0.097-0.715 0.201-1.058 0.314v0c-0.275 0.09-0.565 0.204-0.87 0.341-0.305 0.137-0.505 0.229-0.601 0.276v0l-0.187-0.876c0.343-0.157 0.563-0.348 0.66-0.574 0.093-0.216 0.095-0.548 0.007-0.996v0c-0.192-0.971-0.477-2.335-0.853-4.093-0.368-1.754-0.586-2.735-0.654-2.943v0c-0.09-0.275-0.265-0.445-0.524-0.509-0.25-0.059-0.641-0.016-1.174 0.129v0l-0.107-0.088-0.07-0.724c0.152-0.035 0.426-0.106 0.822-0.215 0.389-0.106 0.765-0.218 1.128-0.336v0c0.302-0.099 0.579-0.197 0.829-0.295 0.251-0.097 0.414-0.166 0.491-0.206v0c0.837 1.146 1.635 2.215 2.392 3.209 0.764 0.991 1.384 1.781 1.861 2.369 0.467 0.583 0.765 0.947 0.893 1.09v0l0.101-0.033c0.027-0.44 0.072-1.456 0.138-3.047 0.065-1.591 0.115-3.378 0.147-5.36v0c0.076-0.04 0.182-0.079 0.319-0.116 0.13-0.035 0.258-0.074 0.387-0.116v0c0.152-0.035 0.373-0.1 0.661-0.194v0c0.222-0.073 0.539-0.192 0.954-0.358 0.407-0.164 0.68-0.275 0.816-0.335v0l0.06 0.047 0.137 0.758c-0.466 0.212-0.775 0.414-0.928 0.606-0.144 0.196-0.171 0.432-0.08 0.707v0c0.09 0.275 0.425 1.136 1.004 2.583 0.577 1.44 1.086 2.66 1.526 3.661v0c0.27 0.596 0.491 0.973 0.662 1.133 0.178 0.157 0.398 0.193 0.66 0.107v0l0.467-0.176 0.06 0.047 0.13 0.872c-0.114 0.037-0.331 0.101-0.651 0.192-0.32 0.09-0.661 0.195-1.024 0.314v0c-0.356 0.117-0.756 0.27-1.199 0.46-0.437 0.188-0.668 0.286-0.695 0.296v0l-0.197-0.873c0.343-0.157 0.571-0.322 0.686-0.493 0.106-0.176 0.118-0.388 0.036-0.637v0c-0.082-0.248-0.475-1.209-1.18-2.881-0.714-1.677-1.2-2.816-1.457-3.416v0l-0.101 0.033c-0.129 2.348-0.27 5.407-0.423 9.177v0z" fill="#ffffff" data-fill-palette-color="primary"></path><path d="M195.419 268.536l-0.282-0.874c0.465-0.274 0.742-0.544 0.831-0.809 0.085-0.256 0.025-0.61-0.179-1.06v0l-2.842-6.289c-0.149-0.328-0.289-0.532-0.419-0.613-0.127-0.074-0.309-0.057-0.547 0.051v0l-0.532 0.265-0.074-0.059-0.217-0.81c0.154-0.07 0.466-0.205 0.935-0.402 0.469-0.198 0.974-0.42 1.514-0.667v0c2.206-1.005 3.809-1.809 4.808-2.411v0l0.106 0.08c0.039 0.153 0.13 0.508 0.274 1.063 0.138 0.558 0.324 1.146 0.558 1.761v0l-0.91 0.508c-0.023-0.051-0.058-0.144-0.104-0.279-0.043-0.128-0.095-0.26-0.156-0.395v0c-0.155-0.341-0.317-0.559-0.484-0.653-0.158-0.091-0.402-0.089-0.731 0.007-0.332 0.089-0.881 0.308-1.647 0.657v0c-0.36 0.164-0.6 0.285-0.72 0.363-0.123 0.087-0.188 0.175-0.194 0.263-0.006 0.088 0.029 0.235 0.107 0.44v0l1.154 2.865 1.639-0.723c0.238-0.108 0.575-0.289 1.011-0.543 0.443-0.256 0.735-0.424 0.877-0.504v0l0.121 0.061 0.229 1.143c-0.141 0.064-0.431 0.188-0.867 0.371-0.437 0.183-0.89 0.382-1.36 0.596v0c-0.373 0.17-0.776 0.393-1.21 0.668v0c0.418 1.021 0.811 1.933 1.177 2.737v0c0.138 0.302 0.257 0.504 0.358 0.606 0.098 0.095 0.24 0.127 0.428 0.097 0.185-0.038 0.467-0.143 0.846-0.316v0c0.862-0.393 1.457-0.714 1.786-0.965 0.338-0.247 0.525-0.527 0.562-0.838 0.043-0.315-0.025-0.788-0.205-1.421v0l0.843-0.478 0.121 0.062c0.026 0.159 0.11 0.532 0.253 1.119 0.147 0.578 0.326 1.168 0.539 1.77v0l-0.082 0.154c-0.36 0.148-1.108 0.466-2.245 0.953-1.131 0.484-2.047 0.886-2.748 1.205v0c-0.54 0.246-1.032 0.497-1.474 0.753-0.443 0.256-0.725 0.42-0.848 0.491z" fill="#ffffff" data-fill-palette-color="primary"></path><path d="M213.564 258.998l-0.344-0.813c0.465-0.348 0.773-0.628 0.922-0.841 0.145-0.219 0.18-0.447 0.104-0.683-0.076-0.237-0.274-0.605-0.593-1.105v0l-3.878-6.065c-0.753 0.515-1.244 0.888-1.474 1.119-0.226 0.237-0.332 0.51-0.319 0.821 0.02 0.306 0.183 0.797 0.49 1.473v0l-0.824 0.602c-0.075-0.17-0.261-0.546-0.557-1.128-0.293-0.576-0.598-1.132-0.916-1.667v0l0.058-0.225 1.401-0.682 4.671-2.988 1.242-1.008 0.229 0.042c0.355 0.528 0.726 1.037 1.115 1.527 0.387 0.499 0.637 0.813 0.752 0.941v0l-0.814 0.596c-0.499-0.57-0.89-0.933-1.173-1.087-0.277-0.158-0.562-0.19-0.854-0.095-0.288 0.1-0.794 0.365-1.518 0.794v0c0.311 0.631 0.877 1.641 1.698 3.029 0.824 1.394 1.604 2.666 2.339 3.815v0c0.228 0.357 0.457 0.564 0.685 0.619 0.226 0.065 0.494-0.001 0.804-0.2v0c0.214-0.137 0.389-0.257 0.524-0.36 0.135-0.103 0.221-0.166 0.257-0.189v0l0.088 0.019 0.366 0.848c-0.173 0.11-0.497 0.305-0.973 0.584-0.476 0.279-0.934 0.56-1.375 0.842v0c-0.441 0.282-0.87 0.569-1.287 0.86-0.417 0.292-0.7 0.493-0.846 0.605z" fill="#ffffff" data-fill-palette-color="primary"></path><path d="M226.427 250.114c-0.775 0.603-1.596 0.969-2.464 1.098-0.872 0.123-1.714-0.005-2.528-0.383-0.815-0.369-1.544-0.966-2.187-1.791v0c-0.695-0.892-1.118-1.857-1.271-2.893-0.148-1.031-0.03-2.023 0.356-2.977 0.386-0.954 1.014-1.77 1.884-2.447v0c0.792-0.616 1.627-0.988 2.504-1.116 0.872-0.123 1.715-0.005 2.532 0.354 0.821 0.364 1.552 0.959 2.195 1.784v0c0.695 0.892 1.116 1.854 1.264 2.885 0.153 1.036 0.033 2.039-0.359 3.007-0.403 0.967-1.044 1.794-1.926 2.479zM226.199 248.975c0.837-0.651 1.28-1.48 1.329-2.485 0.044-1.002-0.32-1.999-1.092-2.992v0c-0.59-0.759-1.23-1.327-1.918-1.705-0.693-0.383-1.384-0.553-2.075-0.508-0.695 0.039-1.341 0.291-1.937 0.756v0c-0.814 0.634-1.237 1.442-1.269 2.425-0.032 0.983 0.339 1.971 1.111 2.964v0c0.59 0.759 1.227 1.329 1.909 1.711 0.687 0.388 1.374 0.569 2.063 0.545 0.684-0.031 1.31-0.267 1.879-0.711z" fill="#ffffff" data-fill-palette-color="primary"></path><path d="M237.821 240.175c-1.152 1.106-2.398 1.646-3.737 1.618-1.344-0.022-2.574-0.615-3.69-1.777v0c-0.827-0.862-1.363-1.797-1.608-2.807-0.244-1.01-0.196-2.021 0.145-3.034 0.346-1.018 0.967-1.957 1.864-2.818v0c0.326-0.313 0.698-0.626 1.114-0.937 0.411-0.317 0.774-0.577 1.088-0.781 0.314-0.204 0.514-0.337 0.601-0.4v0l0.156 0.041c0.039 0.061 0.128 0.21 0.269 0.448 0.135 0.243 0.326 0.539 0.574 0.889 0.253 0.355 0.535 0.716 0.848 1.082v0l-0.714 0.802c-0.039-0.041-0.112-0.127-0.22-0.259-0.102-0.127-0.229-0.27-0.381-0.428v0c-0.352-0.367-0.747-0.498-1.184-0.391-0.442 0.111-0.982 0.472-1.619 1.084v0c-0.928 0.891-1.392 1.836-1.393 2.836 0.005 0.995 0.477 1.982 1.417 2.96v0c1.018 1.06 2.066 1.662 3.142 1.804 1.082 0.137 2.041-0.196 2.877-0.998v0c0.291-0.279 0.526-0.564 0.708-0.856 0.181-0.301 0.311-0.548 0.39-0.742 0.084-0.198 0.129-0.325 0.135-0.379v0l-1.322-1.377c-0.25-0.26-0.459-0.392-0.629-0.395-0.17 0.007-0.39 0.14-0.66 0.399v0l-0.834 0.8-0.089-0.032-0.538-0.82c0.041-0.039 0.239-0.22 0.595-0.543 0.362-0.328 0.726-0.668 1.093-1.02v0c0.24-0.23 0.469-0.465 0.69-0.706 0.225-0.245 0.363-0.402 0.414-0.471v0l0.392 0.285c-0.046 0.289 0.028 0.59 0.221 0.904 0.198 0.319 0.604 0.797 1.216 1.435v0c0.45 0.469 0.816 0.799 1.097 0.989v0l0.048 0.204c-0.047 0.104-0.164 0.324-0.351 0.66-0.182 0.341-0.458 0.763-0.828 1.265-0.365 0.497-0.797 0.986-1.297 1.466z" fill="#ffffff" data-fill-palette-color="primary"></path><path d="M244.402 233.343l-0.625-0.672c0.306-0.445 0.442-0.807 0.411-1.085-0.031-0.268-0.235-0.563-0.611-0.884v0l-5.237-4.496c-0.274-0.234-0.487-0.36-0.639-0.379-0.146-0.013-0.305 0.079-0.474 0.279v0l-0.369 0.465-0.092-0.023-0.54-0.641c0.11-0.129 0.336-0.383 0.677-0.761 0.341-0.378 0.704-0.793 1.09-1.244v0c1.574-1.844 2.686-3.25 3.335-4.219v0l0.13 0.027c0.1 0.122 0.333 0.405 0.699 0.847 0.361 0.448 0.778 0.901 1.251 1.36v0l-0.61 0.845c-0.043-0.037-0.114-0.106-0.212-0.209-0.093-0.098-0.196-0.195-0.309-0.291v0c-0.285-0.243-0.523-0.372-0.715-0.387-0.182-0.016-0.402 0.089-0.659 0.315-0.263 0.221-0.668 0.652-1.214 1.292v0c-0.257 0.301-0.423 0.512-0.499 0.633-0.075 0.131-0.096 0.238-0.065 0.321 0.032 0.083 0.126 0.201 0.284 0.354v0l2.257 2.107 1.179-1.349c0.17-0.199 0.399-0.505 0.687-0.919 0.293-0.419 0.486-0.695 0.581-0.828v0l0.136 0.004 0.691 0.938c-0.101 0.118-0.31 0.353-0.629 0.704-0.318 0.351-0.645 0.723-0.979 1.116v0c-0.266 0.312-0.537 0.684-0.814 1.117v0c0.811 0.748 1.553 1.409 2.224 1.982v0c0.253 0.216 0.446 0.348 0.581 0.398 0.129 0.045 0.272 0.014 0.429-0.094 0.152-0.112 0.363-0.327 0.633-0.645v0c0.615-0.72 1.018-1.264 1.209-1.629 0.202-0.367 0.253-0.699 0.155-0.998-0.094-0.303-0.356-0.704-0.787-1.201v0l0.562-0.789 0.135 0.005c0.091 0.133 0.325 0.435 0.704 0.907 0.377 0.461 0.79 0.92 1.237 1.376v0l-0.009 0.173c-0.263 0.287-0.807 0.891-1.631 1.814-0.82 0.917-1.48 1.669-1.98 2.254v0c-0.385 0.452-0.724 0.887-1.017 1.307-0.293 0.419-0.48 0.687-0.561 0.803z" fill="#ffffff" data-fill-palette-color="primary"></path><path d="M253.329 222.063l-0.628-0.619c0.297-0.5 0.473-0.876 0.529-1.13 0.05-0.258-0.005-0.481-0.165-0.671-0.161-0.19-0.485-0.454-0.972-0.794v0l-5.906-4.116c-0.498 0.764-0.809 1.297-0.933 1.598-0.118 0.305-0.111 0.599 0.02 0.88 0.135 0.275 0.474 0.667 1.017 1.174v0l-0.529 0.871c-0.135-0.128-0.45-0.404-0.948-0.828-0.491-0.42-0.986-0.816-1.484-1.189v0l-0.034-0.231 1.033-1.166 3.171-4.549 0.761-1.408 0.228-0.048c0.53 0.352 1.068 0.68 1.614 0.983 0.548 0.313 0.9 0.507 1.056 0.581v0l-0.524 0.863c-0.679-0.336-1.179-0.52-1.5-0.555-0.317-0.04-0.592 0.04-0.825 0.239-0.228 0.203-0.594 0.642-1.098 1.315v0c0.53 0.464 1.439 1.18 2.729 2.148 1.295 0.972 2.503 1.848 3.622 2.627v0c0.348 0.242 0.638 0.346 0.87 0.31 0.234-0.027 0.456-0.191 0.666-0.493v0c0.145-0.209 0.261-0.387 0.346-0.534 0.085-0.147 0.14-0.238 0.164-0.273v0l0.089-0.015 0.663 0.643c-0.117 0.168-0.342 0.472-0.675 0.912-0.333 0.44-0.648 0.875-0.947 1.304v0c-0.299 0.429-0.585 0.858-0.859 1.288-0.274 0.43-0.457 0.724-0.551 0.883z" fill="#ffffff" data-fill-palette-color="primary"></path><path d="M259.625 212.787l-0.725-0.529c0.177-0.517 0.226-0.907 0.147-1.17-0.076-0.254-0.324-0.498-0.743-0.734v0l-6.024-3.41c-0.314-0.177-0.548-0.259-0.7-0.248-0.146 0.015-0.283 0.137-0.412 0.365v0l-0.272 0.528-0.105 0.014-0.654-0.526c0.069-0.123 0.209-0.357 0.419-0.701 0.206-0.338 0.408-0.683 0.605-1.034v0c0.166-0.296 0.343-0.654 0.532-1.075 0.192-0.427 0.318-0.709 0.378-0.846v0l0.729 0.52c-0.12 0.33-0.181 0.575-0.182 0.736-0.005 0.167 0.054 0.314 0.178 0.441 0.124 0.126 0.354 0.3 0.691 0.522v0l2.235 1.39 1.415-2.452c0.377-0.672 0.74-1.425 1.087-2.259v0l-2.531-1.447c-0.314-0.177-0.548-0.259-0.7-0.247-0.146 0.015-0.283 0.137-0.412 0.364v0l-0.283 0.547-0.094-0.005-0.659-0.516c0.078-0.11 0.212-0.327 0.402-0.65 0.193-0.329 0.378-0.651 0.554-0.965v0c0.17-0.302 0.359-0.682 0.568-1.14 0.209-0.458 0.345-0.759 0.409-0.901v0l0.746 0.492c-0.169 0.416-0.237 0.718-0.206 0.906 0.042 0.186 0.202 0.369 0.482 0.55v0c0.97 0.61 2.06 1.283 3.267 2.019 1.208 0.736 2.148 1.292 2.819 1.67v0c0.407 0.229 0.699 0.336 0.877 0.322 0.187-0.016 0.356-0.157 0.505-0.422v0c0.083-0.148 0.155-0.29 0.215-0.426 0.057-0.13 0.098-0.217 0.122-0.26v0l0.105-0.014 0.669 0.583c-0.076 0.136-0.23 0.394-0.46 0.776-0.227 0.375-0.458 0.772-0.693 1.191v0l-1.047 1.905-0.674-0.574c0.184-0.327 0.28-0.592 0.29-0.798 0.004-0.209-0.082-0.403-0.257-0.582-0.169-0.176-0.463-0.382-0.881-0.617v0l-2.126-1.195-1.244 2.171c-0.114 0.203-0.323 0.625-0.626 1.265-0.307 0.647-0.514 1.081-0.624 1.304v0l2.437 1.442c0.407 0.229 0.702 0.338 0.886 0.328 0.194-0.013 0.365-0.152 0.513-0.416v0c0.087-0.154 0.158-0.296 0.216-0.427 0.06-0.136 0.095-0.226 0.103-0.27v0l0.095 0.005 0.685 0.555c-0.059 0.105-0.174 0.295-0.346 0.572-0.172 0.276-0.347 0.575-0.527 0.895v0c-0.263 0.468-0.532 0.99-0.807 1.565-0.275 0.575-0.397 0.879-0.367 0.913z" fill="#ffffff" data-fill-palette-color="primary"></path><path d="M267.142 198.592l-0.795-0.458c0.161-0.516 0.185-0.902 0.072-1.158-0.109-0.247-0.391-0.469-0.845-0.665v0l-6.329-2.751c-0.331-0.143-0.572-0.2-0.722-0.173-0.144 0.03-0.268 0.166-0.371 0.406v0l-0.216 0.553-0.095 0.006-0.704-0.454c0.067-0.156 0.208-0.464 0.422-0.927 0.214-0.462 0.439-0.965 0.674-1.51v0c0.96-2.226 1.607-3.898 1.943-5.015v0l0.133-0.013c0.132 0.088 0.437 0.289 0.917 0.604 0.477 0.321 1.009 0.631 1.596 0.93v0l-0.333 0.988c-0.052-0.022-0.14-0.068-0.265-0.137-0.118-0.066-0.245-0.129-0.381-0.187v0c-0.344-0.148-0.61-0.201-0.797-0.159-0.178 0.039-0.357 0.204-0.537 0.495-0.186 0.289-0.446 0.82-0.779 1.593v0c-0.157 0.363-0.253 0.614-0.289 0.752-0.033 0.147-0.022 0.256 0.032 0.326 0.055 0.07 0.18 0.154 0.376 0.254v0l2.778 1.348 0.729-1.637c0.104-0.24 0.232-0.6 0.385-1.081 0.156-0.487 0.26-0.808 0.311-0.962v0l0.131-0.036 0.937 0.692c-0.062 0.143-0.193 0.429-0.393 0.858-0.2 0.429-0.403 0.881-0.607 1.355v0c-0.162 0.376-0.312 0.812-0.449 1.307v0c0.996 0.475 1.899 0.888 2.711 1.238v0c0.305 0.132 0.529 0.201 0.672 0.209 0.136 0.005 0.264-0.067 0.382-0.216 0.112-0.152 0.25-0.419 0.415-0.803v0c0.375-0.87 0.6-1.508 0.675-1.914 0.084-0.41 0.035-0.743-0.147-0.998-0.179-0.262-0.548-0.567-1.106-0.916v0l0.304-0.919 0.131-0.036c0.126 0.101 0.439 0.32 0.939 0.659 0.497 0.33 1.026 0.646 1.588 0.95v0l0.043 0.169c-0.167 0.351-0.508 1.089-1.024 2.213-0.513 1.118-0.922 2.031-1.227 2.739v0c-0.235 0.545-0.431 1.061-0.586 1.548-0.156 0.487-0.256 0.798-0.299 0.933z" fill="#ffffff" data-fill-palette-color="primary"></path><path d="M274.631 178.566c-0.098 0.31-0.333 0.58-0.703 0.811-0.37 0.231-0.832 0.403-1.387 0.516v0l-3.603 0.769-0.43 1.354 2.21 0.746c0.397 0.126 0.692 0.19 0.884 0.192 0.194-0.005 0.343-0.076 0.446-0.214 0.105-0.145 0.226-0.407 0.361-0.787v0l0.074-0.021 0.737 0.412c-0.067 0.164-0.172 0.461-0.316 0.89-0.146 0.436-0.289 0.876-0.431 1.32v0c-0.135 0.424-0.247 0.8-0.336 1.128-0.087 0.321-0.141 0.537-0.162 0.65v0l-0.804-0.411c0.095-0.533 0.085-0.911-0.029-1.133-0.11-0.213-0.394-0.392-0.853-0.538v0l-6.611-2.122c-0.33-0.105-0.569-0.136-0.716-0.094-0.14 0.044-0.248 0.185-0.322 0.42v0l-0.166 0.593-0.1 0.035-0.747-0.382c0.043-0.135 0.133-0.395 0.271-0.782 0.135-0.38 0.265-0.765 0.389-1.155v0c0.126-0.397 0.252-0.828 0.377-1.293 0.125-0.464 0.214-0.778 0.265-0.939v0c0.355-1.118 0.867-1.923 1.535-2.416 0.659-0.488 1.396-0.602 2.211-0.343v0c0.64 0.203 1.162 0.603 1.566 1.198 0.402 0.602 0.652 1.345 0.75 2.229v0l3.215-0.914c0.605-0.178 1.061-0.386 1.366-0.623 0.298-0.239 0.516-0.574 0.653-1.005v0l0.137-0.045 0.604 0.303zM268.147 179.999c-0.031-0.299-0.066-0.562-0.105-0.79-0.037-0.234-0.184-0.529-0.442-0.885-0.251-0.354-0.639-0.615-1.164-0.782v0c-1.34-0.426-2.325 0.352-2.955 2.332v0c-0.034 0.108-0.034 0.189 0.001 0.245 0.034 0.055 0.129 0.108 0.283 0.157v0c1.648 0.649 2.872 1.101 3.674 1.356v0z" fill="#ffffff" data-fill-palette-color="primary"></path></g></svg></g></svg></g></svg></g></svg></g><defs></defs></svg><rect width="279.72" height="279.72" fill="none" stroke="none" visibility="hidden"></rect></g></svg></g></svg>